<?xml version="1.0" encoding="UTF-8" standalone="no"?>
<!-- Created with Inkscape (http://www.inkscape.org/) -->
<svg
   xmlns:dc="http://purl.org/dc/elements/1.1/"
   xmlns:cc="http://creativecommons.org/ns#"
   xmlns:rdf="http://www.w3.org/1999/02/22-rdf-syntax-ns#"
   xmlns:svg="http://www.w3.org/2000/svg"
   xmlns="http://www.w3.org/2000/svg"
   xmlns:sodipodi="http://sodipodi.sourceforge.net/DTD/sodipodi-0.dtd"
   xmlns:inkscape="http://www.inkscape.org/namespaces/inkscape"
   id="svg2403"
   sodipodi:version="0.32"
   inkscape:version="0.46"
   width="630"
   height="630"
   xml:space="preserve"
   sodipodi:docname="fjVSr2.svg"
   inkscape:output_extension="org.inkscape.output.svg.inkscape"><metadata
     id="metadata2408"><rdf:RDF><cc:Work
         rdf:about=""><dc:format>image/svg+xml</dc:format><dc:type
           rdf:resource="http://purl.org/dc/dcmitype/StillImage" /></cc:Work></rdf:RDF></metadata><defs
     id="defs2406"><inkscape:perspective
       sodipodi:type="inkscape:persp3d"
       inkscape:vp_x="0 : 526.18109 : 1"
       inkscape:vp_y="0 : 1000 : 0"
       inkscape:vp_z="744.09448 : 526.18109 : 1"
       inkscape:persp3d-origin="372.04724 : 350.78739 : 1"
       id="perspective2410" /><clipPath
       clipPathUnits="userSpaceOnUse"
       id="clipPath2488"><path
         d="M 57.52,259.31 L 192.04,259.31 L 192.04,447.41 L 57.52,447.41 L 57.52,259.31 z"
         id="path2490" /></clipPath><clipPath
       clipPathUnits="userSpaceOnUse"
       id="clipPath2530"><path
         d="M 57.52,447.41 L 192.04,447.41 L 192.04,461.81 L 57.52,461.81 L 57.52,447.41 z"
         id="path2532" /></clipPath><clipPath
       clipPathUnits="userSpaceOnUse"
       id="clipPath2596"><path
         d="M 192.05,259.31 L 326.57,259.31 L 326.57,447.41 L 192.05,447.41 L 192.05,259.31 z"
         id="path2598" /></clipPath><clipPath
       clipPathUnits="userSpaceOnUse"
       id="clipPath2638"><path
         d="M 192.05,447.41 L 326.57,447.41 L 326.57,461.81 L 192.05,461.81 L 192.05,447.41 z"
         id="path2640" /></clipPath><clipPath
       clipPathUnits="userSpaceOnUse"
       id="clipPath2694"><path
         d="M 326.57,259.31 L 461.09,259.31 L 461.09,447.41 L 326.57,447.41 L 326.57,259.31 z"
         id="path2696" /></clipPath><clipPath
       clipPathUnits="userSpaceOnUse"
       id="clipPath2736"><path
         d="M 326.57,447.41 L 461.09,447.41 L 461.09,461.81 L 326.57,461.81 L 326.57,447.41 z"
         id="path2738" /></clipPath><clipPath
       clipPathUnits="userSpaceOnUse"
       id="clipPath2812"><path
         d="M 57.52,56.8 L 192.04,56.8 L 192.04,244.9 L 57.52,244.9 L 57.52,56.8 z"
         id="path2814" /></clipPath><clipPath
       clipPathUnits="userSpaceOnUse"
       id="clipPath2854"><path
         d="M 57.52,244.91 L 192.04,244.91 L 192.04,259.31 L 57.52,259.31 L 57.52,244.91 z"
         id="path2856" /></clipPath><clipPath
       clipPathUnits="userSpaceOnUse"
       id="clipPath2930"><path
         d="M 192.05,56.8 L 326.57,56.8 L 326.57,244.9 L 192.05,244.9 L 192.05,56.8 z"
         id="path2932" /></clipPath><clipPath
       clipPathUnits="userSpaceOnUse"
       id="clipPath2972"><path
         d="M 192.05,244.91 L 326.57,244.91 L 326.57,259.31 L 192.05,259.31 L 192.05,244.91 z"
         id="path2974" /></clipPath></defs><sodipodi:namedview
     inkscape:window-height="820"
     inkscape:window-width="1320"
     inkscape:pageshadow="2"
     inkscape:pageopacity="0.0"
     guidetolerance="10.0"
     gridtolerance="10.0"
     objecttolerance="10.0"
     borderopacity="1.0"
     bordercolor="#666666"
     pagecolor="#ffffff"
     id="base"
     showgrid="false"
     inkscape:zoom="1.568254"
     inkscape:cx="219.0409"
     inkscape:cy="469.30897"
     inkscape:window-x="0"
     inkscape:window-y="25"
     inkscape:current-layer="g2412" /><g
     id="g2412"
     inkscape:groupmode="layer"
     inkscape:label="fjVSr2"
     transform="matrix(1.25,0,0,-1.25,0,630)"><g
       id="g2414" /><g
       id="g2416" /><g
       id="g2418"><text
   transform="matrix(1,0,0,-1,241.13,18)"
   id="text2420"><tspan
     style="fill:#000000;fill-opacity:1;fill-rule:nonzero;stroke:none;font-family:Helvetica;font-variant:normal;font-weight:normal;font-size:12;writing-mode:lr;-inkscape-font-specification:Helvetica"
     x="0 7.332 14.004 20.676 27.684"
     y="0"
     sodipodi:role="line"
     id="tspan2422">FL2−H</tspan></text>

</g><g
       id="g2424"><text
   transform="matrix(0,1,1,0,20.62,232.1)"
   id="text2426"><tspan
     style="fill:#000000;fill-opacity:1;fill-rule:nonzero;stroke:none;font-family:Helvetica;font-variant:normal;font-weight:normal;font-size:12;writing-mode:lr;-inkscape-font-specification:Helvetica"
     x="0 8.664 15.336 22.008 28.008 30.672 34.008"
     y="0"
     sodipodi:role="line"
     id="tspan2428">Density</tspan></text>

</g><g
       id="g2430" /><g
       id="g2432"><path
         d="M 65.78,461.81 L 65.78,467.48"
         style="fill:none;stroke:#000000;stroke-opacity:1;stroke-width:0.75;stroke-linecap:round;stroke-linejoin:round;stroke-miterlimit:10;stroke-dasharray:none"
         id="path2434" /><path
         d="M 95.52,461.81 L 95.52,467.48"
         style="fill:none;stroke:#000000;stroke-opacity:1;stroke-width:0.75;stroke-linecap:round;stroke-linejoin:round;stroke-miterlimit:10;stroke-dasharray:none"
         id="path2436" /><path
         d="M 125.25,461.81 L 125.25,467.48"
         style="fill:none;stroke:#000000;stroke-opacity:1;stroke-width:0.75;stroke-linecap:round;stroke-linejoin:round;stroke-miterlimit:10;stroke-dasharray:none"
         id="path2438" /><path
         d="M 154.98,461.81 L 154.98,467.48"
         style="fill:none;stroke:#000000;stroke-opacity:1;stroke-width:0.75;stroke-linecap:round;stroke-linejoin:round;stroke-miterlimit:10;stroke-dasharray:none"
         id="path2440" /><path
         d="M 184.72,461.81 L 184.72,467.48"
         style="fill:none;stroke:#000000;stroke-opacity:1;stroke-width:0.75;stroke-linecap:round;stroke-linejoin:round;stroke-miterlimit:10;stroke-dasharray:none"
         id="path2442" /></g><g
       id="g2444" /><g
       id="g2446"><path
   d="M 57.52,270.86 L 51.85,270.86"
   style="fill:none;stroke:#000000;stroke-opacity:1;stroke-width:0.75;stroke-linecap:round;stroke-linejoin:round;stroke-miterlimit:10;stroke-dasharray:none"
   id="path2448" /><path
   d="M 57.52,310.22 L 51.85,310.22"
   style="fill:none;stroke:#000000;stroke-opacity:1;stroke-width:0.75;stroke-linecap:round;stroke-linejoin:round;stroke-miterlimit:10;stroke-dasharray:none"
   id="path2450" /><path
   d="M 57.52,349.58 L 51.85,349.58"
   style="fill:none;stroke:#000000;stroke-opacity:1;stroke-width:0.75;stroke-linecap:round;stroke-linejoin:round;stroke-miterlimit:10;stroke-dasharray:none"
   id="path2452" /><path
   d="M 57.52,388.94 L 51.85,388.94"
   style="fill:none;stroke:#000000;stroke-opacity:1;stroke-width:0.75;stroke-linecap:round;stroke-linejoin:round;stroke-miterlimit:10;stroke-dasharray:none"
   id="path2454" /><path
   d="M 57.52,428.31 L 51.85,428.31"
   style="fill:none;stroke:#000000;stroke-opacity:1;stroke-width:0.75;stroke-linecap:round;stroke-linejoin:round;stroke-miterlimit:10;stroke-dasharray:none"
   id="path2456" /><text
   transform="matrix(1,0,0,-1,32.29,267.27)"
   id="text2458"><tspan
     style="fill:#000000;fill-opacity:1;fill-rule:nonzero;stroke:none;font-family:Helvetica;font-variant:normal;font-weight:normal;font-size:10;writing-mode:lr;-inkscape-font-specification:Helvetica"
     x="0 5.56 8.34"
     y="0"
     sodipodi:role="line"
     id="tspan2460">0.0</tspan></text>

<text
   transform="matrix(1,0,0,-1,32.29,306.63)"
   id="text2462"><tspan
     style="fill:#000000;fill-opacity:1;fill-rule:nonzero;stroke:none;font-family:Helvetica;font-variant:normal;font-weight:normal;font-size:10;writing-mode:lr;-inkscape-font-specification:Helvetica"
     x="0 5.56 8.34"
     y="0"
     sodipodi:role="line"
     id="tspan2464">0.5</tspan></text>

<text
   transform="matrix(1,0,0,-1,32.29,345.99)"
   id="text2466"><tspan
     style="fill:#000000;fill-opacity:1;fill-rule:nonzero;stroke:none;font-family:Helvetica;font-variant:normal;font-weight:normal;font-size:10;writing-mode:lr;-inkscape-font-specification:Helvetica"
     x="0 5.56 8.34"
     y="0"
     sodipodi:role="line"
     id="tspan2468">1.0</tspan></text>

<text
   transform="matrix(1,0,0,-1,32.29,385.35)"
   id="text2470"><tspan
     style="fill:#000000;fill-opacity:1;fill-rule:nonzero;stroke:none;font-family:Helvetica;font-variant:normal;font-weight:normal;font-size:10;writing-mode:lr;-inkscape-font-specification:Helvetica"
     x="0 5.56 8.34"
     y="0"
     sodipodi:role="line"
     id="tspan2472">1.5</tspan></text>

<text
   transform="matrix(1,0,0,-1,32.29,424.72)"
   id="text2474"><tspan
     style="fill:#000000;fill-opacity:1;fill-rule:nonzero;stroke:none;font-family:Helvetica;font-variant:normal;font-weight:normal;font-size:10;writing-mode:lr;-inkscape-font-specification:Helvetica"
     x="0 5.56 8.34"
     y="0"
     sodipodi:role="line"
     id="tspan2476">2.0</tspan></text>

</g><g
       id="g2478" /><g
       id="g2480" /><g
       id="g2482" /><g
       id="g2484"><g
         id="g2486"
         clip-path="url(#clipPath2488)"><path
           d="M 62.02,271.08 L 63.24,273.47 L 64.47,282.97 L 65.7,294.2 L 66.93,293.05 L 68.16,287.38 L 69.39,285.56 L 70.62,286.59 L 71.84,290.48 L 73.07,295.75 L 74.3,301.1 L 75.53,305.94 L 76.76,309.16 L 77.99,313.02 L 79.22,320.7 L 80.44,330.03 L 81.67,338.29 L 82.9,345.48 L 84.13,354.87 L 85.36,368.53 L 86.59,380.74 L 87.82,390.05 L 89.05,399.27 L 90.27,405.19 L 91.5,405.93 L 92.73,401.37 L 93.96,389.47 L 95.19,371.43 L 96.42,350.8 L 97.65,327.34 L 98.87,303.99 L 100.1,287.58 L 101.33,278.53 L 102.56,274.1 L 103.79,272.31 L 105.02,271.52 L 106.25,271.1 L 107.47,270.92 L 108.7,270.87 L 109.93,270.86 L 111.16,270.86 L 112.39,270.86 L 113.62,270.86 L 114.85,270.86 L 116.07,270.88 L 117.3,270.95 L 118.53,271 L 119.76,270.94 L 120.99,270.88 L 122.22,270.86"
           style="fill:none;stroke:#0000ff;stroke-opacity:1;stroke-width:0.75;stroke-linecap:round;stroke-linejoin:round;stroke-miterlimit:10;stroke-dasharray:none"
           id="path2492" /><path
           d="M 103.75,259.31 L 103.75,447.41"
           style="fill:none;stroke:#000000;stroke-opacity:1;stroke-width:0.75;stroke-linecap:round;stroke-linejoin:round;stroke-miterlimit:10;stroke-dasharray:none"
           id="path2494" /><path
           d="M 62.02,271.08 L 63.24,273.47 L 64.47,282.97 L 65.7,294.2 L 66.93,293.05 L 68.16,287.38 L 69.39,285.56 L 70.62,286.59 L 71.84,290.48 L 73.07,295.75 L 74.3,301.1 L 75.53,305.94 L 76.76,309.16 L 77.99,313.02 L 79.22,320.7 L 80.44,330.03 L 81.67,338.29 L 82.9,345.48 L 84.13,354.87 L 85.36,368.53 L 86.59,380.74 L 87.82,390.05 L 89.05,399.27 L 90.27,405.19 L 91.5,405.93 L 92.73,401.37 L 93.96,389.47 L 95.19,371.43 L 96.42,350.8 L 97.65,327.34 L 98.87,303.99 L 100.1,287.58 L 101.33,278.53 L 102.56,274.1 L 103.79,272.31 L 105.02,271.52 L 106.25,271.1 L 107.47,270.92 L 108.7,270.87 L 109.93,270.86 L 111.16,270.86 L 112.39,270.86 L 113.62,270.86 L 114.85,270.86 L 116.07,270.88 L 117.3,270.95 L 118.53,271 L 119.76,270.94 L 120.99,270.88 L 122.22,270.86"
           style="fill:none;stroke:#0000ff;stroke-opacity:1;stroke-width:0.75;stroke-linecap:round;stroke-linejoin:round;stroke-miterlimit:10;stroke-dasharray:none"
           id="path2496" /><path
           d="M 62.35,270.97 L 64.63,276.96 L 66.91,280.31 L 69.19,277.22 L 71.47,278.61 L 73.75,280.81 L 76.03,283.06 L 78.31,287.87 L 80.59,292.92 L 82.87,300.66 L 85.15,306.13 L 87.43,321.75 L 89.71,342.84 L 91.99,363.17 L 94.28,396.05 L 96.56,417.46 L 98.84,414.2 L 101.12,384.95 L 103.4,340.68 L 105.68,305.31 L 107.96,283.95 L 110.24,275.43 L 112.52,272.92 L 114.8,272.03 L 117.08,271.43 L 119.36,271.01 L 121.64,270.86 L 123.92,270.97 L 126.2,271.13 L 128.48,270.87 L 130.76,270.86 L 133.04,270.86 L 135.32,270.86 L 137.6,270.99 L 139.88,270.93 L 142.16,271.09 L 144.44,271.01 L 146.72,270.86 L 149,270.86 L 151.28,270.86 L 153.56,270.86 L 155.84,270.86 L 158.12,270.86 L 160.4,270.86 L 162.68,270.86 L 164.96,270.86 L 167.24,270.86 L 169.52,270.96 L 171.8,270.95 L 174.08,270.86"
           style="fill:none;stroke:#000000;stroke-opacity:1;stroke-width:0.75;stroke-linecap:round;stroke-linejoin:round;stroke-miterlimit:10;stroke-dasharray:none"
           id="path2498" /><path
           d="M 103.75,259.31 L 103.75,447.41"
           style="fill:none;stroke:#000000;stroke-opacity:1;stroke-width:0.75;stroke-linecap:round;stroke-linejoin:round;stroke-miterlimit:10;stroke-dasharray:none"
           id="path2500" /><path
           d="M 62.02,271.08 L 63.24,273.47 L 64.47,282.97 L 65.7,294.2 L 66.93,293.05 L 68.16,287.38 L 69.39,285.56 L 70.62,286.59 L 71.84,290.48 L 73.07,295.75 L 74.3,301.1 L 75.53,305.94 L 76.76,309.16 L 77.99,313.02 L 79.22,320.7 L 80.44,330.03 L 81.67,338.29 L 82.9,345.48 L 84.13,354.87 L 85.36,368.53 L 86.59,380.74 L 87.82,390.05 L 89.05,399.27 L 90.27,405.19 L 91.5,405.93 L 92.73,401.37 L 93.96,389.47 L 95.19,371.43 L 96.42,350.8 L 97.65,327.34 L 98.87,303.99 L 100.1,287.58 L 101.33,278.53 L 102.56,274.1 L 103.79,272.31 L 105.02,271.52 L 106.25,271.1 L 107.47,270.92 L 108.7,270.87 L 109.93,270.86 L 111.16,270.86 L 112.39,270.86 L 113.62,270.86 L 114.85,270.86 L 116.07,270.88 L 117.3,270.95 L 118.53,271 L 119.76,270.94 L 120.99,270.88 L 122.22,270.86"
           style="fill:none;stroke:#0000ff;stroke-opacity:1;stroke-width:0.75;stroke-linecap:round;stroke-linejoin:round;stroke-miterlimit:10;stroke-dasharray:none"
           id="path2502" /><path
           d="M 62.27,270.88 L 64.78,272.05 L 67.29,272.48 L 69.8,272.33 L 72.3,271.77 L 74.81,272.59 L 77.32,272.27 L 79.83,272.18 L 82.34,273.46 L 84.85,274.11 L 87.36,273.96 L 89.87,276.57 L 92.38,277.53 L 94.89,282.07 L 97.39,284.44 L 99.9,294.96 L 102.41,305.54 L 104.92,315.07 L 107.43,338.96 L 109.94,367.96 L 112.45,396.99 L 114.96,405.35 L 117.47,390.88 L 119.98,360.43 L 122.48,321.3 L 124.99,301.88 L 127.5,293.63 L 130.01,284.5 L 132.52,279.65 L 135.03,276.14 L 137.54,273.47 L 140.05,272.93 L 142.56,272.18 L 145.07,271.8 L 147.57,271.38 L 150.08,270.89 L 152.59,271.01 L 155.1,270.87 L 157.61,270.86 L 160.12,270.86 L 162.63,270.97 L 165.14,270.92 L 167.65,270.86 L 170.16,270.86 L 172.66,270.86 L 175.17,270.86 L 177.68,270.86 L 180.19,270.93 L 182.7,270.96 L 185.21,270.86"
           style="fill:none;stroke:#ff0000;stroke-opacity:1;stroke-width:0.75;stroke-linecap:round;stroke-linejoin:round;stroke-miterlimit:10;stroke-dasharray:none"
           id="path2504" /><path
           d="M 103.75,259.31 L 103.75,447.41"
           style="fill:none;stroke:#000000;stroke-opacity:1;stroke-width:0.75;stroke-linecap:round;stroke-linejoin:round;stroke-miterlimit:10;stroke-dasharray:none"
           id="path2506" /><path
           d="M 62.02,271.08 L 63.24,273.47 L 64.47,282.97 L 65.7,294.2 L 66.93,293.05 L 68.16,287.38 L 69.39,285.56 L 70.62,286.59 L 71.84,290.48 L 73.07,295.75 L 74.3,301.1 L 75.53,305.94 L 76.76,309.16 L 77.99,313.02 L 79.22,320.7 L 80.44,330.03 L 81.67,338.29 L 82.9,345.48 L 84.13,354.87 L 85.36,368.53 L 86.59,380.74 L 87.82,390.05 L 89.05,399.27 L 90.27,405.19 L 91.5,405.93 L 92.73,401.37 L 93.96,389.47 L 95.19,371.43 L 96.42,350.8 L 97.65,327.34 L 98.87,303.99 L 100.1,287.58 L 101.33,278.53 L 102.56,274.1 L 103.79,272.31 L 105.02,271.52 L 106.25,271.1 L 107.47,270.92 L 108.7,270.87 L 109.93,270.86 L 111.16,270.86 L 112.39,270.86 L 113.62,270.86 L 114.85,270.86 L 116.07,270.88 L 117.3,270.95 L 118.53,271 L 119.76,270.94 L 120.99,270.88 L 122.22,270.86"
           style="fill:none;stroke:#0000ff;stroke-opacity:1;stroke-width:0.75;stroke-linecap:round;stroke-linejoin:round;stroke-miterlimit:10;stroke-dasharray:none"
           id="path2508" /><path
           d="M 62.22,270.9 L 64.67,273.32 L 67.12,273.98 L 69.56,273.6 L 72.01,274.07 L 74.46,274.75 L 76.9,274.31 L 79.35,274.8 L 81.8,276.32 L 84.24,277.39 L 86.69,279.18 L 89.14,282.46 L 91.58,285.91 L 94.03,293.05 L 96.48,305.02 L 98.92,318.87 L 101.37,336.22 L 103.82,357.75 L 106.27,383.35 L 108.71,404.06 L 111.16,411.61 L 113.61,389.53 L 116.05,346.91 L 118.5,300.06 L 120.95,280.11 L 123.39,274.41 L 125.84,273.05 L 128.29,272.56 L 130.73,271.73 L 133.18,271.54 L 135.63,271.22 L 138.07,270.96 L 140.52,270.99 L 142.97,270.87 L 145.41,270.99 L 147.86,270.93 L 150.31,271.12 L 152.75,270.94 L 155.2,271.02 L 157.65,271.36 L 160.1,270.93 L 162.54,270.86 L 164.99,270.91 L 167.44,270.99 L 169.88,270.86 L 172.33,270.86 L 174.78,270.86 L 177.22,270.94 L 179.67,270.96 L 182.12,270.86"
           style="fill:none;stroke:#000000;stroke-opacity:1;stroke-width:0.75;stroke-linecap:round;stroke-linejoin:round;stroke-miterlimit:10;stroke-dasharray:none"
           id="path2510" /><path
           d="M 103.75,259.31 L 103.75,447.41"
           style="fill:none;stroke:#030000;stroke-opacity:1;stroke-width:0.7504;stroke-linecap:round;stroke-linejoin:round;stroke-miterlimit:10;stroke-dasharray:1.5008,0.7504;stroke-dashoffset:0;fill-opacity:1"
           id="path2512" /><path
           d="M 62.02,271.08 L 63.24,273.47 L 64.47,282.97 L 65.7,294.2 L 66.93,293.05 L 68.16,287.38 L 69.39,285.56 L 70.62,286.59 L 71.84,290.48 L 73.07,295.75 L 74.3,301.1 L 75.53,305.94 L 76.76,309.16 L 77.99,313.02 L 79.22,320.7 L 80.44,330.03 L 81.67,338.29 L 82.9,345.48 L 84.13,354.87 L 85.36,368.53 L 86.59,380.74 L 87.82,390.05 L 89.05,399.27 L 90.27,405.19 L 91.5,405.93 L 92.73,401.37 L 93.96,389.47 L 95.19,371.43 L 96.42,350.8 L 97.65,327.34 L 98.87,303.99 L 100.1,287.58 L 101.33,278.53 L 102.56,274.1 L 103.79,272.31 L 105.02,271.52 L 106.25,271.1 L 107.47,270.92 L 108.7,270.87 L 109.93,270.86 L 111.16,270.86 L 112.39,270.86 L 113.62,270.86 L 114.85,270.86 L 116.07,270.88 L 117.3,270.95 L 118.53,271 L 119.76,270.94 L 120.99,270.88 L 122.22,270.86"
           style="fill:none;stroke:#0000ff;stroke-opacity:1;stroke-width:0.75;stroke-linecap:round;stroke-linejoin:round;stroke-miterlimit:10;stroke-dasharray:none"
           id="path2514" /></g></g><g
       id="g2516" /><g
       id="g2518"><path
         d="M 57.52,259.31 L 192.04,259.31 L 192.04,447.41 L 57.52,447.41 L 57.52,259.31 z"
         style="fill:none;stroke:#000000;stroke-opacity:1;stroke-width:0.75;stroke-linecap:round;stroke-linejoin:round;stroke-miterlimit:10;stroke-dasharray:none"
         id="path2520" /></g><g
       id="g2522" /><g
       id="g2524" /><g
       id="g2526"><g
         id="g2528"
         clip-path="url(#clipPath2530)"><path
   d="M 57.52,447.41 L 192.04,447.41 L 192.04,461.81 L 57.52,461.81 L 57.52,447.41 z"
   style="fill:#ffe5cc;fill-opacity:1;fill-rule:nonzero;stroke:#ffe5cc;stroke-opacity:1;stroke-width:0.75;stroke-linecap:round;stroke-linejoin:round;stroke-miterlimit:10;stroke-dasharray:none"
   id="path2534" /><text
   transform="matrix(1,0,0,-1,104.1,450.3)"
   id="text2536"><tspan
     style="font-size:12px;font-variant:normal;font-weight:normal;writing-mode:lr-tb;fill:#000000;fill-opacity:1;fill-rule:nonzero;stroke:none;font-family:Helvetica;-inkscape-font-specification:Helvetica"
     x="0"
     sodipodi:role="line"
     id="tspan2538"
     y="0" /></text>

</g></g><g
       id="g2540" /><g
       id="g2542"><path
         d="M 57.52,447.41 L 192.04,447.41 L 192.04,461.81 L 57.52,461.81 L 57.52,447.41 z"
         style="fill:none;stroke:#000000;stroke-opacity:1;stroke-width:0.75;stroke-linecap:round;stroke-linejoin:round;stroke-miterlimit:10;stroke-dasharray:none"
         id="path2544" /></g><g
       id="g2546" /><g
       id="g2548" /><g
       id="g2550"><path
   d="M 200.31,461.81 L 200.31,467.48"
   style="fill:none;stroke:#000000;stroke-opacity:1;stroke-width:0.75;stroke-linecap:round;stroke-linejoin:round;stroke-miterlimit:10;stroke-dasharray:none"
   id="path2552" /><path
   d="M 230.04,461.81 L 230.04,467.48"
   style="fill:none;stroke:#000000;stroke-opacity:1;stroke-width:0.75;stroke-linecap:round;stroke-linejoin:round;stroke-miterlimit:10;stroke-dasharray:none"
   id="path2554" /><path
   d="M 259.77,461.81 L 259.77,467.48"
   style="fill:none;stroke:#000000;stroke-opacity:1;stroke-width:0.75;stroke-linecap:round;stroke-linejoin:round;stroke-miterlimit:10;stroke-dasharray:none"
   id="path2556" /><path
   d="M 289.51,461.81 L 289.51,467.48"
   style="fill:none;stroke:#000000;stroke-opacity:1;stroke-width:0.75;stroke-linecap:round;stroke-linejoin:round;stroke-miterlimit:10;stroke-dasharray:none"
   id="path2558" /><path
   d="M 319.24,461.81 L 319.24,467.48"
   style="fill:none;stroke:#000000;stroke-opacity:1;stroke-width:0.75;stroke-linecap:round;stroke-linejoin:round;stroke-miterlimit:10;stroke-dasharray:none"
   id="path2560" /><text
   transform="matrix(1,0,0,-1,197.53,473.15)"
   id="text2562"><tspan
     style="fill:#000000;fill-opacity:1;fill-rule:nonzero;stroke:none;font-family:Helvetica;font-variant:normal;font-weight:normal;font-size:10;writing-mode:lr;-inkscape-font-specification:Helvetica"
     x="0"
     y="0"
     id="tspan2564">0</tspan></text>

<text
   transform="matrix(1,0,0,-1,227.26,473.15)"
   id="text2566"><tspan
     style="fill:#000000;fill-opacity:1;fill-rule:nonzero;stroke:none;font-family:Helvetica;font-variant:normal;font-weight:normal;font-size:10;writing-mode:lr;-inkscape-font-specification:Helvetica"
     x="0"
     y="0"
     id="tspan2568">1</tspan></text>

<text
   transform="matrix(1,0,0,-1,256.99,473.15)"
   id="text2570"><tspan
     style="fill:#000000;fill-opacity:1;fill-rule:nonzero;stroke:none;font-family:Helvetica;font-variant:normal;font-weight:normal;font-size:10;writing-mode:lr;-inkscape-font-specification:Helvetica"
     x="0"
     y="0"
     id="tspan2572">2</tspan></text>

<text
   transform="matrix(1,0,0,-1,286.73,473.15)"
   id="text2574"><tspan
     style="fill:#000000;fill-opacity:1;fill-rule:nonzero;stroke:none;font-family:Helvetica;font-variant:normal;font-weight:normal;font-size:10;writing-mode:lr;-inkscape-font-specification:Helvetica"
     x="0"
     y="0"
     id="tspan2576">3</tspan></text>

<text
   transform="matrix(1,0,0,-1,316.46,473.15)"
   id="text2578"><tspan
     style="fill:#000000;fill-opacity:1;fill-rule:nonzero;stroke:none;font-family:Helvetica;font-variant:normal;font-weight:normal;font-size:10;writing-mode:lr;-inkscape-font-specification:Helvetica"
     x="0"
     y="0"
     id="tspan2580">4</tspan></text>

</g><g
       id="g2582" /><g
       id="g2584" /><g
       id="g2586" /><g
       id="g2588" /><g
       id="g2590" /><g
       id="g2592"><g
         id="g2594"
         clip-path="url(#clipPath2596)"><path
           d="M 196.41,271.08 L 197.85,274.17 L 199.29,286.24 L 200.74,294.67 L 202.18,288.88 L 203.62,286.47 L 205.06,288.94 L 206.51,292.24 L 207.95,295.4 L 209.39,298.4 L 210.83,303.04 L 212.28,308.65 L 213.72,316.58 L 215.16,325.87 L 216.61,334.55 L 218.05,343.47 L 219.49,354.79 L 220.93,369.67 L 222.38,381.67 L 223.82,389.03 L 225.26,396.42 L 226.71,399.26 L 228.15,395.09 L 229.59,385.22 L 231.03,367.15 L 232.48,338.52 L 233.92,310.82 L 235.36,293.09 L 236.8,281.55 L 238.25,275.02 L 239.69,272.14 L 241.13,271.31 L 242.58,271.24 L 244.02,271.12 L 245.46,271.09 L 246.9,271.07 L 248.35,270.95 L 249.79,270.87 L 251.23,270.86 L 252.67,270.89 L 254.12,270.97 L 255.56,270.98 L 257,270.9 L 258.45,270.87 L 259.89,270.92 L 261.33,271.03 L 262.77,271.07 L 264.22,270.97 L 265.66,270.88 L 267.1,270.86"
           style="fill:none;stroke:#0000ff;stroke-opacity:1;stroke-width:0.75;stroke-linecap:round;stroke-linejoin:round;stroke-miterlimit:10;stroke-dasharray:none"
           id="path2600" /><path
           d="M 239.4,259.31 L 239.4,447.41"
           style="fill:none;stroke:#000000;stroke-opacity:1;stroke-width:0.75;stroke-linecap:round;stroke-linejoin:round;stroke-miterlimit:10;stroke-dasharray:none"
           id="path2602" /><path
           d="M 196.41,271.08 L 197.85,274.17 L 199.29,286.24 L 200.74,294.67 L 202.18,288.88 L 203.62,286.47 L 205.06,288.94 L 206.51,292.24 L 207.95,295.4 L 209.39,298.4 L 210.83,303.04 L 212.28,308.65 L 213.72,316.58 L 215.16,325.87 L 216.61,334.55 L 218.05,343.47 L 219.49,354.79 L 220.93,369.67 L 222.38,381.67 L 223.82,389.03 L 225.26,396.42 L 226.71,399.26 L 228.15,395.09 L 229.59,385.22 L 231.03,367.15 L 232.48,338.52 L 233.92,310.82 L 235.36,293.09 L 236.8,281.55 L 238.25,275.02 L 239.69,272.14 L 241.13,271.31 L 242.58,271.24 L 244.02,271.12 L 245.46,271.09 L 246.9,271.07 L 248.35,270.95 L 249.79,270.87 L 251.23,270.86 L 252.67,270.89 L 254.12,270.97 L 255.56,270.98 L 257,270.9 L 258.45,270.87 L 259.89,270.92 L 261.33,271.03 L 262.77,271.07 L 264.22,270.97 L 265.66,270.88 L 267.1,270.86"
           style="fill:none;stroke:#0000ff;stroke-opacity:1;stroke-width:0.75;stroke-linecap:round;stroke-linejoin:round;stroke-miterlimit:10;stroke-dasharray:none"
           id="path2604" /><path
           d="M 196.9,270.95 L 198.96,274.84 L 201.01,280.33 L 203.07,277.77 L 205.13,278.66 L 207.18,282.02 L 209.24,284.03 L 211.29,285.13 L 213.35,288.21 L 215.41,292.03 L 217.46,299.4 L 219.52,307.8 L 221.57,320.87 L 223.63,334.76 L 225.69,356.43 L 227.74,385.2 L 229.8,406.1 L 231.85,416.61 L 233.91,406.01 L 235.97,376.81 L 238.02,342.71 L 240.08,308.41 L 242.13,284.28 L 244.19,275.32 L 246.25,273.44 L 248.3,271.8 L 250.36,271.04 L 252.42,270.89 L 254.47,271.12 L 256.53,271.17 L 258.58,270.89 L 260.64,270.86 L 262.7,270.88 L 264.75,271.01 L 266.81,270.89 L 268.86,270.94 L 270.92,271.06 L 272.98,271.03 L 275.03,271.02 L 277.09,270.88 L 279.14,270.86 L 281.2,270.86 L 283.26,270.86 L 285.31,270.86 L 287.37,270.86 L 289.43,270.86 L 291.48,270.87 L 293.54,270.98 L 295.59,270.93 L 297.65,270.86"
           style="fill:none;stroke:#000000;stroke-opacity:1;stroke-width:0.75;stroke-linecap:round;stroke-linejoin:round;stroke-miterlimit:10;stroke-dasharray:none"
           id="path2606" /><path
           d="M 239.4,259.31 L 239.4,447.41"
           style="fill:none;stroke:#000000;stroke-opacity:1;stroke-width:0.75;stroke-linecap:round;stroke-linejoin:round;stroke-miterlimit:10;stroke-dasharray:none"
           id="path2608" /><path
           d="M 196.41,271.08 L 197.85,274.17 L 199.29,286.24 L 200.74,294.67 L 202.18,288.88 L 203.62,286.47 L 205.06,288.94 L 206.51,292.24 L 207.95,295.4 L 209.39,298.4 L 210.83,303.04 L 212.28,308.65 L 213.72,316.58 L 215.16,325.87 L 216.61,334.55 L 218.05,343.47 L 219.49,354.79 L 220.93,369.67 L 222.38,381.67 L 223.82,389.03 L 225.26,396.42 L 226.71,399.26 L 228.15,395.09 L 229.59,385.22 L 231.03,367.15 L 232.48,338.52 L 233.92,310.82 L 235.36,293.09 L 236.8,281.55 L 238.25,275.02 L 239.69,272.14 L 241.13,271.31 L 242.58,271.24 L 244.02,271.12 L 245.46,271.09 L 246.9,271.07 L 248.35,270.95 L 249.79,270.87 L 251.23,270.86 L 252.67,270.89 L 254.12,270.97 L 255.56,270.98 L 257,270.9 L 258.45,270.87 L 259.89,270.92 L 261.33,271.03 L 262.77,271.07 L 264.22,270.97 L 265.66,270.88 L 267.1,270.86"
           style="fill:none;stroke:#0000ff;stroke-opacity:1;stroke-width:0.75;stroke-linecap:round;stroke-linejoin:round;stroke-miterlimit:10;stroke-dasharray:none"
           id="path2610" /><path
           d="M 196.86,270.9 L 198.9,272.72 L 200.95,274.51 L 202.99,271.61 L 205.03,271.38 L 207.08,271.47 L 209.12,271.38 L 211.16,271.65 L 213.21,272.21 L 215.25,272.42 L 217.29,272.54 L 219.34,273.17 L 221.38,273.7 L 223.43,274 L 225.47,274.47 L 227.51,275.01 L 229.56,275.77 L 231.6,277.37 L 233.64,281.84 L 235.69,286.2 L 237.73,289.1 L 239.77,296.28 L 241.82,305.42 L 243.86,321.59 L 245.9,340.67 L 247.95,365.35 L 249.99,394.19 L 252.04,412.5 L 254.08,404.06 L 256.12,375.97 L 258.17,350.88 L 260.21,326.39 L 262.25,312.97 L 264.3,305.41 L 266.34,295.72 L 268.38,286.97 L 270.43,279.46 L 272.47,276.76 L 274.51,275.78 L 276.56,274.91 L 278.6,272.81 L 280.65,272.09 L 282.69,272.28 L 284.73,271.7 L 286.78,271.19 L 288.82,271 L 290.86,270.88 L 292.91,270.99 L 294.95,270.93 L 296.99,270.86"
           style="fill:none;stroke:#ff0000;stroke-opacity:1;stroke-width:0.75;stroke-linecap:round;stroke-linejoin:round;stroke-miterlimit:10;stroke-dasharray:none"
           id="path2612" /><path
           d="M 239.4,259.31 L 239.4,447.41"
           style="fill:none;stroke:#000000;stroke-opacity:1;stroke-width:0.75;stroke-linecap:round;stroke-linejoin:round;stroke-miterlimit:10;stroke-dasharray:none"
           id="path2614" /><path
           d="M 196.41,271.08 L 197.85,274.17 L 199.29,286.24 L 200.74,294.67 L 202.18,288.88 L 203.62,286.47 L 205.06,288.94 L 206.51,292.24 L 207.95,295.4 L 209.39,298.4 L 210.83,303.04 L 212.28,308.65 L 213.72,316.58 L 215.16,325.87 L 216.61,334.55 L 218.05,343.47 L 219.49,354.79 L 220.93,369.67 L 222.38,381.67 L 223.82,389.03 L 225.26,396.42 L 226.71,399.26 L 228.15,395.09 L 229.59,385.22 L 231.03,367.15 L 232.48,338.52 L 233.92,310.82 L 235.36,293.09 L 236.8,281.55 L 238.25,275.02 L 239.69,272.14 L 241.13,271.31 L 242.58,271.24 L 244.02,271.12 L 245.46,271.09 L 246.9,271.07 L 248.35,270.95 L 249.79,270.87 L 251.23,270.86 L 252.67,270.89 L 254.12,270.97 L 255.56,270.98 L 257,270.9 L 258.45,270.87 L 259.89,270.92 L 261.33,271.03 L 262.77,271.07 L 264.22,270.97 L 265.66,270.88 L 267.1,270.86"
           style="fill:none;stroke:#0000ff;stroke-opacity:1;stroke-width:0.75;stroke-linecap:round;stroke-linejoin:round;stroke-miterlimit:10;stroke-dasharray:none"
           id="path2616" /><path
           d="M 196.64,270.9 L 199.2,273.38 L 201.76,274.81 L 204.32,273.89 L 206.87,275.77 L 209.43,275.82 L 211.99,275.98 L 214.55,278.2 L 217.1,279.62 L 219.66,280.25 L 222.22,283.32 L 224.78,290.36 L 227.34,299.22 L 229.89,307.57 L 232.45,322.03 L 235.01,340.94 L 237.57,367.41 L 240.12,391.65 L 242.68,406.1 L 245.24,397.23 L 247.8,365 L 250.36,317.82 L 252.91,288.08 L 255.47,274.68 L 258.03,272.87 L 260.59,272.31 L 263.14,271.46 L 265.7,271.41 L 268.26,271.5 L 270.82,271.03 L 273.38,270.86 L 275.93,270.86 L 278.49,270.99 L 281.05,270.94 L 283.61,270.98 L 286.16,270.86 L 288.72,270.89 L 291.28,270.99 L 293.84,270.87 L 296.4,270.86 L 298.95,270.86 L 301.51,270.92 L 304.07,271.11 L 306.63,270.89 L 309.18,270.86 L 311.74,270.86 L 314.3,270.86 L 316.86,270.93 L 319.42,270.95 L 321.97,270.86"
           style="fill:none;stroke:#000000;stroke-opacity:1;stroke-width:0.75;stroke-linecap:round;stroke-linejoin:round;stroke-miterlimit:10;stroke-dasharray:none"
           id="path2618" /><path
           d="M 239.4,259.31 L 239.4,447.41"
           style="fill:none;stroke:#000000;stroke-opacity:1;stroke-width:0.75;stroke-linecap:round;stroke-linejoin:round;stroke-miterlimit:10;stroke-dasharray:none"
           id="path2620" /><path
           d="M 196.41,271.08 L 197.85,274.17 L 199.29,286.24 L 200.74,294.67 L 202.18,288.88 L 203.62,286.47 L 205.06,288.94 L 206.51,292.24 L 207.95,295.4 L 209.39,298.4 L 210.83,303.04 L 212.28,308.65 L 213.72,316.58 L 215.16,325.87 L 216.61,334.55 L 218.05,343.47 L 219.49,354.79 L 220.93,369.67 L 222.38,381.67 L 223.82,389.03 L 225.26,396.42 L 226.71,399.26 L 228.15,395.09 L 229.59,385.22 L 231.03,367.15 L 232.48,338.52 L 233.92,310.82 L 235.36,293.09 L 236.8,281.55 L 238.25,275.02 L 239.69,272.14 L 241.13,271.31 L 242.58,271.24 L 244.02,271.12 L 245.46,271.09 L 246.9,271.07 L 248.35,270.95 L 249.79,270.87 L 251.23,270.86 L 252.67,270.89 L 254.12,270.97 L 255.56,270.98 L 257,270.9 L 258.45,270.87 L 259.89,270.92 L 261.33,271.03 L 262.77,271.07 L 264.22,270.97 L 265.66,270.88 L 267.1,270.86"
           style="fill:none;stroke:#0000ff;stroke-opacity:1;stroke-width:0.75;stroke-linecap:round;stroke-linejoin:round;stroke-miterlimit:10;stroke-dasharray:none"
           id="path2622" /></g></g><g
       id="g2624" /><g
       id="g2626"><path
         d="M 192.05,259.31 L 326.57,259.31 L 326.57,447.41 L 192.05,447.41 L 192.05,259.31 z"
         style="fill:none;stroke:#000000;stroke-opacity:1;stroke-width:0.75;stroke-linecap:round;stroke-linejoin:round;stroke-miterlimit:10;stroke-dasharray:none"
         id="path2628" /></g><g
       id="g2630" /><g
       id="g2632" /><g
       id="g2634"><g
         id="g2636"
         clip-path="url(#clipPath2638)"><path
   d="M 192.05,447.41 L 326.57,447.41 L 326.57,461.81 L 192.05,461.81 L 192.05,447.41 z"
   style="fill:#ffe5cc;fill-opacity:1;fill-rule:nonzero;stroke:#ffe5cc;stroke-opacity:1;stroke-width:0.75;stroke-linecap:round;stroke-linejoin:round;stroke-miterlimit:10;stroke-dasharray:none"
   id="path2642" /><text
   transform="matrix(1,0,0,-1,238.63,450.3)"
   id="text2644"><tspan
     style="fill:#000000;fill-opacity:1;fill-rule:nonzero;stroke:none;font-family:Helvetica;font-variant:normal;font-weight:normal;font-size:12;writing-mode:lr;-inkscape-font-specification:Helvetica"
     x="0"
     sodipodi:role="line"
     id="tspan2646"
     y="0" /></text>

</g></g><g
       id="g2648" /><g
       id="g2650"><path
         d="M 192.05,447.41 L 326.57,447.41 L 326.57,461.81 L 192.05,461.81 L 192.05,447.41 z"
         style="fill:none;stroke:#000000;stroke-opacity:1;stroke-width:0.75;stroke-linecap:round;stroke-linejoin:round;stroke-miterlimit:10;stroke-dasharray:none"
         id="path2652" /></g><g
       id="g2654" /><g
       id="g2656" /><g
       id="g2658"><path
         d="M 334.83,461.81 L 334.83,467.48"
         style="fill:none;stroke:#000000;stroke-opacity:1;stroke-width:0.75;stroke-linecap:round;stroke-linejoin:round;stroke-miterlimit:10;stroke-dasharray:none"
         id="path2660" /><path
         d="M 364.56,461.81 L 364.56,467.48"
         style="fill:none;stroke:#000000;stroke-opacity:1;stroke-width:0.75;stroke-linecap:round;stroke-linejoin:round;stroke-miterlimit:10;stroke-dasharray:none"
         id="path2662" /><path
         d="M 394.3,461.81 L 394.3,467.48"
         style="fill:none;stroke:#000000;stroke-opacity:1;stroke-width:0.75;stroke-linecap:round;stroke-linejoin:round;stroke-miterlimit:10;stroke-dasharray:none"
         id="path2664" /><path
         d="M 424.03,461.81 L 424.03,467.48"
         style="fill:none;stroke:#000000;stroke-opacity:1;stroke-width:0.75;stroke-linecap:round;stroke-linejoin:round;stroke-miterlimit:10;stroke-dasharray:none"
         id="path2666" /><path
         d="M 453.76,461.81 L 453.76,467.48"
         style="fill:none;stroke:#000000;stroke-opacity:1;stroke-width:0.75;stroke-linecap:round;stroke-linejoin:round;stroke-miterlimit:10;stroke-dasharray:none"
         id="path2668" /></g><g
       id="g2670" /><g
       id="g2672" /><g
       id="g2674" /><g
       id="g2676"><path
         d="M 461.09,270.86 L 466.76,270.86"
         style="fill:none;stroke:#000000;stroke-opacity:1;stroke-width:0.75;stroke-linecap:round;stroke-linejoin:round;stroke-miterlimit:10;stroke-dasharray:none"
         id="path2678" /><path
         d="M 461.09,310.22 L 466.76,310.22"
         style="fill:none;stroke:#000000;stroke-opacity:1;stroke-width:0.75;stroke-linecap:round;stroke-linejoin:round;stroke-miterlimit:10;stroke-dasharray:none"
         id="path2680" /><path
         d="M 461.09,349.58 L 466.76,349.58"
         style="fill:none;stroke:#000000;stroke-opacity:1;stroke-width:0.75;stroke-linecap:round;stroke-linejoin:round;stroke-miterlimit:10;stroke-dasharray:none"
         id="path2682" /><path
         d="M 461.09,388.94 L 466.76,388.94"
         style="fill:none;stroke:#000000;stroke-opacity:1;stroke-width:0.75;stroke-linecap:round;stroke-linejoin:round;stroke-miterlimit:10;stroke-dasharray:none"
         id="path2684" /><path
         d="M 461.09,428.31 L 466.76,428.31"
         style="fill:none;stroke:#000000;stroke-opacity:1;stroke-width:0.75;stroke-linecap:round;stroke-linejoin:round;stroke-miterlimit:10;stroke-dasharray:none"
         id="path2686" /></g><g
       id="g2688" /><g
       id="g2690"><g
         id="g2692"
         clip-path="url(#clipPath2694)"><path
           d="M 330.95,271.35 L 332.08,275.61 L 333.22,292.79 L 334.36,320.78 L 335.49,333.09 L 336.63,326.21 L 337.76,321.84 L 338.9,323.72 L 340.04,326.74 L 341.17,330.53 L 342.31,337.38 L 343.44,346.75 L 344.58,356.18 L 345.72,365.05 L 346.85,374.28 L 347.99,380.97 L 349.12,385.09 L 350.26,389.93 L 351.4,393.28 L 352.53,393.53 L 353.67,391.24 L 354.8,384.76 L 355.94,373.26 L 357.07,358.32 L 358.21,341.11 L 359.35,323.22 L 360.48,306.24 L 361.62,292.56 L 362.75,283.47 L 363.89,277.92 L 365.03,274.39 L 366.16,272.2 L 367.3,271.33 L 368.43,271.31 L 369.57,271.44 L 370.71,271.42 L 371.84,271.26 L 372.98,271.09 L 374.11,271.15 L 375.25,271.39 L 376.39,271.48 L 377.52,271.41 L 378.66,271.34 L 379.79,271.2 L 380.93,271.06 L 382.07,271.06 L 383.2,271.05 L 384.34,270.95 L 385.47,270.88 L 386.61,270.86"
           style="fill:none;stroke:#0000ff;stroke-opacity:1;stroke-width:0.75;stroke-linecap:round;stroke-linejoin:round;stroke-miterlimit:10;stroke-dasharray:none"
           id="path2698" /><path
           d="M 365.21,259.31 L 365.21,447.41"
           style="fill:none;stroke:#000000;stroke-opacity:1;stroke-width:0.75;stroke-linecap:round;stroke-linejoin:round;stroke-miterlimit:10;stroke-dasharray:none"
           id="path2700" /><path
           d="M 330.95,271.35 L 332.08,275.61 L 333.22,292.79 L 334.36,320.78 L 335.49,333.09 L 336.63,326.21 L 337.76,321.84 L 338.9,323.72 L 340.04,326.74 L 341.17,330.53 L 342.31,337.38 L 343.44,346.75 L 344.58,356.18 L 345.72,365.05 L 346.85,374.28 L 347.99,380.97 L 349.12,385.09 L 350.26,389.93 L 351.4,393.28 L 352.53,393.53 L 353.67,391.24 L 354.8,384.76 L 355.94,373.26 L 357.07,358.32 L 358.21,341.11 L 359.35,323.22 L 360.48,306.24 L 361.62,292.56 L 362.75,283.47 L 363.89,277.92 L 365.03,274.39 L 366.16,272.2 L 367.3,271.33 L 368.43,271.31 L 369.57,271.44 L 370.71,271.42 L 371.84,271.26 L 372.98,271.09 L 374.11,271.15 L 375.25,271.39 L 376.39,271.48 L 377.52,271.41 L 378.66,271.34 L 379.79,271.2 L 380.93,271.06 L 382.07,271.06 L 383.2,271.05 L 384.34,270.95 L 385.47,270.88 L 386.61,270.86"
           style="fill:none;stroke:#0000ff;stroke-opacity:1;stroke-width:0.75;stroke-linecap:round;stroke-linejoin:round;stroke-miterlimit:10;stroke-dasharray:none"
           id="path2702" /><path
           d="M 331.17,270.95 L 332.7,272.79 L 334.23,279.69 L 335.76,282.65 L 337.29,281.1 L 338.82,282.23 L 340.35,285.7 L 341.88,289.83 L 343.41,294.75 L 344.94,302.01 L 346.47,311.49 L 348,322.91 L 349.53,333.81 L 351.06,347.32 L 352.59,363.37 L 354.12,378.53 L 355.66,391.69 L 357.19,406.52 L 358.72,419.36 L 360.25,412.15 L 361.78,398.5 L 363.31,378.39 L 364.84,347.09 L 366.37,318.54 L 367.9,295.89 L 369.43,282.46 L 370.96,275.15 L 372.49,272.62 L 374.02,272.52 L 375.55,272.86 L 377.08,272.91 L 378.61,272.24 L 380.14,271.68 L 381.67,271.3 L 383.2,271.08 L 384.73,270.94 L 386.26,271.11 L 387.79,271.44 L 389.32,271.64 L 390.85,271.87 L 392.38,272.19 L 393.91,272.01 L 395.44,271.65 L 396.97,271.73 L 398.5,271.92 L 400.03,271.38 L 401.56,271.3 L 403.09,271.18 L 404.62,270.92 L 406.15,270.86"
           style="fill:none;stroke:#000000;stroke-opacity:1;stroke-width:0.75;stroke-linecap:round;stroke-linejoin:round;stroke-miterlimit:10;stroke-dasharray:none"
           id="path2704" /><path
           d="M 365.21,259.31 L 365.21,447.41"
           style="fill:none;stroke:#000000;stroke-opacity:1;stroke-width:0.75;stroke-linecap:round;stroke-linejoin:round;stroke-miterlimit:10;stroke-dasharray:none"
           id="path2706" /><path
           d="M 330.95,271.35 L 332.08,275.61 L 333.22,292.79 L 334.36,320.78 L 335.49,333.09 L 336.63,326.21 L 337.76,321.84 L 338.9,323.72 L 340.04,326.74 L 341.17,330.53 L 342.31,337.38 L 343.44,346.75 L 344.58,356.18 L 345.72,365.05 L 346.85,374.28 L 347.99,380.97 L 349.12,385.09 L 350.26,389.93 L 351.4,393.28 L 352.53,393.53 L 353.67,391.24 L 354.8,384.76 L 355.94,373.26 L 357.07,358.32 L 358.21,341.11 L 359.35,323.22 L 360.48,306.24 L 361.62,292.56 L 362.75,283.47 L 363.89,277.92 L 365.03,274.39 L 366.16,272.2 L 367.3,271.33 L 368.43,271.31 L 369.57,271.44 L 370.71,271.42 L 371.84,271.26 L 372.98,271.09 L 374.11,271.15 L 375.25,271.39 L 376.39,271.48 L 377.52,271.41 L 378.66,271.34 L 379.79,271.2 L 380.93,271.06 L 382.07,271.06 L 383.2,271.05 L 384.34,270.95 L 385.47,270.88 L 386.61,270.86"
           style="fill:none;stroke:#0000ff;stroke-opacity:1;stroke-width:0.75;stroke-linecap:round;stroke-linejoin:round;stroke-miterlimit:10;stroke-dasharray:none"
           id="path2708" /><path
           d="M 331.12,270.93 L 333.04,273.02 L 334.96,277.61 L 336.89,275.01 L 338.81,275.9 L 340.74,277.29 L 342.66,279.67 L 344.58,279.98 L 346.51,279.3 L 348.43,281.17 L 350.36,284.78 L 352.28,289.59 L 354.2,294.06 L 356.13,298.7 L 358.05,308.9 L 359.98,322.42 L 361.9,346.12 L 363.82,371.16 L 365.75,387.86 L 367.67,406.21 L 369.59,406.92 L 371.52,402.5 L 373.44,373.08 L 375.37,340.19 L 377.29,316.65 L 379.21,294.64 L 381.14,281.9 L 383.06,278.67 L 384.99,276.7 L 386.91,275.29 L 388.83,274.35 L 390.76,274.33 L 392.68,273.04 L 394.61,272.45 L 396.53,271.96 L 398.45,271.75 L 400.38,271.79 L 402.3,271.56 L 404.22,271.39 L 406.15,271.45 L 408.07,271.7 L 410,271.26 L 411.92,271.06 L 413.84,270.88 L 415.77,270.86 L 417.69,270.86 L 419.62,270.92 L 421.54,271.09 L 423.46,270.94 L 425.39,270.86"
           style="fill:none;stroke:#ff0000;stroke-opacity:1;stroke-width:0.75;stroke-linecap:round;stroke-linejoin:round;stroke-miterlimit:10;stroke-dasharray:none"
           id="path2710" /><path
           d="M 365.21,259.31 L 365.21,447.41"
           style="fill:none;stroke:#000000;stroke-opacity:1;stroke-width:0.75;stroke-linecap:round;stroke-linejoin:round;stroke-miterlimit:10;stroke-dasharray:none"
           id="path2712" /><path
           d="M 330.95,271.35 L 332.08,275.61 L 333.22,292.79 L 334.36,320.78 L 335.49,333.09 L 336.63,326.21 L 337.76,321.84 L 338.9,323.72 L 340.04,326.74 L 341.17,330.53 L 342.31,337.38 L 343.44,346.75 L 344.58,356.18 L 345.72,365.05 L 346.85,374.28 L 347.99,380.97 L 349.12,385.09 L 350.26,389.93 L 351.4,393.28 L 352.53,393.53 L 353.67,391.24 L 354.8,384.76 L 355.94,373.26 L 357.07,358.32 L 358.21,341.11 L 359.35,323.22 L 360.48,306.24 L 361.62,292.56 L 362.75,283.47 L 363.89,277.92 L 365.03,274.39 L 366.16,272.2 L 367.3,271.33 L 368.43,271.31 L 369.57,271.44 L 370.71,271.42 L 371.84,271.26 L 372.98,271.09 L 374.11,271.15 L 375.25,271.39 L 376.39,271.48 L 377.52,271.41 L 378.66,271.34 L 379.79,271.2 L 380.93,271.06 L 382.07,271.06 L 383.2,271.05 L 384.34,270.95 L 385.47,270.88 L 386.61,270.86"
           style="fill:none;stroke:#0000ff;stroke-opacity:1;stroke-width:0.75;stroke-linecap:round;stroke-linejoin:round;stroke-miterlimit:10;stroke-dasharray:none"
           id="path2714" /><path
           d="M 330.68,270.98 L 332.34,273 L 333.99,280.85 L 335.65,285.07 L 337.31,283.59 L 338.97,285.42 L 340.62,286.89 L 342.28,288.91 L 343.94,290.93 L 345.59,292.14 L 347.25,294.93 L 348.91,299.93 L 350.56,306.81 L 352.22,313.23 L 353.88,321.9 L 355.54,334.75 L 357.19,350.53 L 358.85,367.24 L 360.51,380.49 L 362.16,391.28 L 363.82,401.42 L 365.48,402.15 L 367.13,388.77 L 368.79,364.82 L 370.45,337.29 L 372.11,311.86 L 373.76,292.05 L 375.42,280.53 L 377.08,274.83 L 378.73,272.76 L 380.39,272.12 L 382.05,272.03 L 383.7,272.16 L 385.36,271.84 L 387.02,271.59 L 388.68,271.58 L 390.33,271.68 L 391.99,271.63 L 393.65,271.43 L 395.3,271.15 L 396.96,271.42 L 398.62,271.96 L 400.27,271.78 L 401.93,271.56 L 403.59,271.78 L 405.25,271.73 L 406.9,271.32 L 408.56,271.06 L 410.22,270.9 L 411.87,270.86"
           style="fill:none;stroke:#000000;stroke-opacity:1;stroke-width:0.75;stroke-linecap:round;stroke-linejoin:round;stroke-miterlimit:10;stroke-dasharray:none"
           id="path2716" /><path
           d="M 365.21,259.31 L 365.21,447.41"
           style="fill:none;stroke:#000000;stroke-opacity:1;stroke-width:0.75;stroke-linecap:round;stroke-linejoin:round;stroke-miterlimit:10;stroke-dasharray:none"
           id="path2718" /><path
           d="M 330.95,271.35 L 332.08,275.61 L 333.22,292.79 L 334.36,320.78 L 335.49,333.09 L 336.63,326.21 L 337.76,321.84 L 338.9,323.72 L 340.04,326.74 L 341.17,330.53 L 342.31,337.38 L 343.44,346.75 L 344.58,356.18 L 345.72,365.05 L 346.85,374.28 L 347.99,380.97 L 349.12,385.09 L 350.26,389.93 L 351.4,393.28 L 352.53,393.53 L 353.67,391.24 L 354.8,384.76 L 355.94,373.26 L 357.07,358.32 L 358.21,341.11 L 359.35,323.22 L 360.48,306.24 L 361.62,292.56 L 362.75,283.47 L 363.89,277.92 L 365.03,274.39 L 366.16,272.2 L 367.3,271.33 L 368.43,271.31 L 369.57,271.44 L 370.71,271.42 L 371.84,271.26 L 372.98,271.09 L 374.11,271.15 L 375.25,271.39 L 376.39,271.48 L 377.52,271.41 L 378.66,271.34 L 379.79,271.2 L 380.93,271.06 L 382.07,271.06 L 383.2,271.05 L 384.34,270.95 L 385.47,270.88 L 386.61,270.86"
           style="fill:none;stroke:#0000ff;stroke-opacity:1;stroke-width:0.75;stroke-linecap:round;stroke-linejoin:round;stroke-miterlimit:10;stroke-dasharray:none"
           id="path2720" /></g></g><g
       id="g2722" /><g
       id="g2724"><path
         d="M 326.57,259.31 L 461.09,259.31 L 461.09,447.41 L 326.57,447.41 L 326.57,259.31 z"
         style="fill:none;stroke:#000000;stroke-opacity:1;stroke-width:0.75;stroke-linecap:round;stroke-linejoin:round;stroke-miterlimit:10;stroke-dasharray:none"
         id="path2726" /></g><g
       id="g2728" /><g
       id="g2730" /><g
       id="g2732"><g
         id="g2734"
         clip-path="url(#clipPath2736)"><path
   d="M 326.57,447.41 L 461.09,447.41 L 461.09,461.81 L 326.57,461.81 L 326.57,447.41 z"
   style="fill:#ffe5cc;fill-opacity:1;fill-rule:nonzero;stroke:#ffe5cc;stroke-opacity:1;stroke-width:0.75;stroke-linecap:round;stroke-linejoin:round;stroke-miterlimit:10;stroke-dasharray:none"
   id="path2740" /><text
   transform="matrix(1,0,0,-1,373.15,450.3)"
   id="text2742"><tspan
     style="fill:#000000;fill-opacity:1;fill-rule:nonzero;stroke:none;font-family:Helvetica;font-variant:normal;font-weight:normal;font-size:12;writing-mode:lr;-inkscape-font-specification:Helvetica"
     x="0"
     y="0"
     sodipodi:role="line"
     id="tspan2744" /></text>

</g></g><g
       id="g2746" /><g
       id="g2748"><path
         d="M 326.57,447.41 L 461.09,447.41 L 461.09,461.81 L 326.57,461.81 L 326.57,447.41 z"
         style="fill:none;stroke:#000000;stroke-opacity:1;stroke-width:0.75;stroke-linecap:round;stroke-linejoin:round;stroke-miterlimit:10;stroke-dasharray:none"
         id="path2750" /></g><g
       id="g2752" /><g
       id="g2754" /><g
       id="g2756" /><g
       id="g2758" /><g
       id="g2760"><path
         d="M 57.52,68.35 L 51.85,68.35"
         style="fill:none;stroke:#000000;stroke-opacity:1;stroke-width:0.75;stroke-linecap:round;stroke-linejoin:round;stroke-miterlimit:10;stroke-dasharray:none"
         id="path2762" /><path
         d="M 57.52,107.72 L 51.85,107.72"
         style="fill:none;stroke:#000000;stroke-opacity:1;stroke-width:0.75;stroke-linecap:round;stroke-linejoin:round;stroke-miterlimit:10;stroke-dasharray:none"
         id="path2764" /><path
         d="M 57.52,147.08 L 51.85,147.08"
         style="fill:none;stroke:#000000;stroke-opacity:1;stroke-width:0.75;stroke-linecap:round;stroke-linejoin:round;stroke-miterlimit:10;stroke-dasharray:none"
         id="path2766" /><path
         d="M 57.52,186.44 L 51.85,186.44"
         style="fill:none;stroke:#000000;stroke-opacity:1;stroke-width:0.75;stroke-linecap:round;stroke-linejoin:round;stroke-miterlimit:10;stroke-dasharray:none"
         id="path2768" /><path
         d="M 57.52,225.8 L 51.85,225.8"
         style="fill:none;stroke:#000000;stroke-opacity:1;stroke-width:0.75;stroke-linecap:round;stroke-linejoin:round;stroke-miterlimit:10;stroke-dasharray:none"
         id="path2770" /></g><g
       id="g2772" /><g
       id="g2774"><path
   d="M 65.78,56.8 L 65.78,51.13"
   style="fill:none;stroke:#000000;stroke-opacity:1;stroke-width:0.75;stroke-linecap:round;stroke-linejoin:round;stroke-miterlimit:10;stroke-dasharray:none"
   id="path2776" /><path
   d="M 95.52,56.8 L 95.52,51.13"
   style="fill:none;stroke:#000000;stroke-opacity:1;stroke-width:0.75;stroke-linecap:round;stroke-linejoin:round;stroke-miterlimit:10;stroke-dasharray:none"
   id="path2778" /><path
   d="M 125.25,56.8 L 125.25,51.13"
   style="fill:none;stroke:#000000;stroke-opacity:1;stroke-width:0.75;stroke-linecap:round;stroke-linejoin:round;stroke-miterlimit:10;stroke-dasharray:none"
   id="path2780" /><path
   d="M 154.98,56.8 L 154.98,51.13"
   style="fill:none;stroke:#000000;stroke-opacity:1;stroke-width:0.75;stroke-linecap:round;stroke-linejoin:round;stroke-miterlimit:10;stroke-dasharray:none"
   id="path2782" /><path
   d="M 184.72,56.8 L 184.72,51.13"
   style="fill:none;stroke:#000000;stroke-opacity:1;stroke-width:0.75;stroke-linecap:round;stroke-linejoin:round;stroke-miterlimit:10;stroke-dasharray:none"
   id="path2784" /><text
   transform="matrix(1,0,0,-1,63,38.29)"
   id="text2786"><tspan
     style="fill:#000000;fill-opacity:1;fill-rule:nonzero;stroke:none;font-family:Helvetica;font-variant:normal;font-weight:normal;font-size:10;writing-mode:lr;-inkscape-font-specification:Helvetica"
     x="0"
     y="0"
     id="tspan2788">0</tspan></text>

<text
   transform="matrix(1,0,0,-1,92.74,38.29)"
   id="text2790"><tspan
     style="fill:#000000;fill-opacity:1;fill-rule:nonzero;stroke:none;font-family:Helvetica;font-variant:normal;font-weight:normal;font-size:10;writing-mode:lr;-inkscape-font-specification:Helvetica"
     x="0"
     y="0"
     id="tspan2792">1</tspan></text>

<text
   transform="matrix(1,0,0,-1,122.47,38.29)"
   id="text2794"><tspan
     style="fill:#000000;fill-opacity:1;fill-rule:nonzero;stroke:none;font-family:Helvetica;font-variant:normal;font-weight:normal;font-size:10;writing-mode:lr;-inkscape-font-specification:Helvetica"
     x="0"
     y="0"
     id="tspan2796">2</tspan></text>

<text
   transform="matrix(1,0,0,-1,152.2,38.29)"
   id="text2798"><tspan
     style="fill:#000000;fill-opacity:1;fill-rule:nonzero;stroke:none;font-family:Helvetica;font-variant:normal;font-weight:normal;font-size:10;writing-mode:lr;-inkscape-font-specification:Helvetica"
     x="0"
     y="0"
     id="tspan2800">3</tspan></text>

<text
   transform="matrix(1,0,0,-1,181.94,38.29)"
   id="text2802"><tspan
     style="fill:#000000;fill-opacity:1;fill-rule:nonzero;stroke:none;font-family:Helvetica;font-variant:normal;font-weight:normal;font-size:10;writing-mode:lr;-inkscape-font-specification:Helvetica"
     x="0"
     y="0"
     id="tspan2804">4</tspan></text>

</g><g
       id="g2806" /><g
       id="g2808"><g
         id="g2810"
         clip-path="url(#clipPath2812)"><path
           d="M 61.99,68.83 L 63.1,72.99 L 64.21,89.62 L 65.32,116.04 L 66.43,126.4 L 67.55,119.52 L 68.66,117.36 L 69.77,121.46 L 70.88,126.77 L 71.99,133.49 L 73.1,141.87 L 74.21,150.92 L 75.32,160.58 L 76.43,171.75 L 77.54,182.38 L 78.66,189.24 L 79.77,192.51 L 80.88,193.2 L 81.99,190.78 L 83.1,185.26 L 84.21,177.37 L 85.32,171.13 L 86.43,165.04 L 87.54,152.43 L 88.65,136.9 L 89.77,123.38 L 90.88,109.84 L 91.99,96.13 L 93.1,85.25 L 94.21,77.86 L 95.32,73.27 L 96.43,70.91 L 97.54,69.85 L 98.65,69.35 L 99.76,69.03 L 100.88,68.85 L 101.99,68.75 L 103.1,68.59 L 104.21,68.43 L 105.32,68.37 L 106.43,68.37 L 107.54,68.43 L 108.65,68.54 L 109.76,68.58 L 110.88,68.55 L 111.99,68.57 L 113.1,68.56 L 114.21,68.46 L 115.32,68.38 L 116.43,68.36"
           style="fill:none;stroke:#0000ff;stroke-opacity:1;stroke-width:0.75;stroke-linecap:round;stroke-linejoin:round;stroke-miterlimit:10;stroke-dasharray:none"
           id="path2816" /><path
           d="M 95.04,56.8 L 95.04,244.91"
           style="fill:none;stroke:#000000;stroke-opacity:1;stroke-width:0.75;stroke-linecap:round;stroke-linejoin:round;stroke-miterlimit:10;stroke-dasharray:none"
           id="path2818" /><path
           d="M 61.99,68.83 L 63.1,72.99 L 64.21,89.62 L 65.32,116.04 L 66.43,126.4 L 67.55,119.52 L 68.66,117.36 L 69.77,121.46 L 70.88,126.77 L 71.99,133.49 L 73.1,141.87 L 74.21,150.92 L 75.32,160.58 L 76.43,171.75 L 77.54,182.38 L 78.66,189.24 L 79.77,192.51 L 80.88,193.2 L 81.99,190.78 L 83.1,185.26 L 84.21,177.37 L 85.32,171.13 L 86.43,165.04 L 87.54,152.43 L 88.65,136.9 L 89.77,123.38 L 90.88,109.84 L 91.99,96.13 L 93.1,85.25 L 94.21,77.86 L 95.32,73.27 L 96.43,70.91 L 97.54,69.85 L 98.65,69.35 L 99.76,69.03 L 100.88,68.85 L 101.99,68.75 L 103.1,68.59 L 104.21,68.43 L 105.32,68.37 L 106.43,68.37 L 107.54,68.43 L 108.65,68.54 L 109.76,68.58 L 110.88,68.55 L 111.99,68.57 L 113.1,68.56 L 114.21,68.46 L 115.32,68.38 L 116.43,68.36"
           style="fill:none;stroke:#0000ff;stroke-opacity:1;stroke-width:0.75;stroke-linecap:round;stroke-linejoin:round;stroke-miterlimit:10;stroke-dasharray:none"
           id="path2820" /><path
           d="M 62.31,68.5 L 63.93,71.99 L 65.55,82.55 L 67.18,81.39 L 68.8,79.29 L 70.42,80.34 L 72.04,82.72 L 73.67,90.38 L 75.29,95.26 L 76.91,98.25 L 78.53,107.5 L 80.16,123.68 L 81.78,138.86 L 83.4,156.05 L 85.02,174.7 L 86.64,192.87 L 88.27,213.24 L 89.89,221.58 L 91.51,220.03 L 93.13,205.05 L 94.76,168.68 L 96.38,129.06 L 98,98.85 L 99.62,81.87 L 101.25,74.16 L 102.87,71.99 L 104.49,70.28 L 106.11,69.63 L 107.73,69.25 L 109.36,68.52 L 110.98,68.4 L 112.6,68.78 L 114.22,69.23 L 115.85,69.26 L 117.47,68.84 L 119.09,68.76 L 120.71,69.04 L 122.34,69.64 L 123.96,69.52 L 125.58,69.16 L 127.2,68.66 L 128.82,68.49 L 130.45,68.6 L 132.07,68.43 L 133.69,68.36 L 135.31,68.36 L 136.94,68.47 L 138.56,68.59 L 140.18,68.42 L 141.8,68.36"
           style="fill:none;stroke:#000000;stroke-opacity:1;stroke-width:0.75;stroke-linecap:round;stroke-linejoin:round;stroke-miterlimit:10;stroke-dasharray:none"
           id="path2822" /><path
           d="M 95.04,56.8 L 95.04,244.91"
           style="fill:none;stroke:#000000;stroke-opacity:1;stroke-width:0.75;stroke-linecap:round;stroke-linejoin:round;stroke-miterlimit:10;stroke-dasharray:none"
           id="path2824" /><path
           d="M 61.99,68.83 L 63.1,72.99 L 64.21,89.62 L 65.32,116.04 L 66.43,126.4 L 67.55,119.52 L 68.66,117.36 L 69.77,121.46 L 70.88,126.77 L 71.99,133.49 L 73.1,141.87 L 74.21,150.92 L 75.32,160.58 L 76.43,171.75 L 77.54,182.38 L 78.66,189.24 L 79.77,192.51 L 80.88,193.2 L 81.99,190.78 L 83.1,185.26 L 84.21,177.37 L 85.32,171.13 L 86.43,165.04 L 87.54,152.43 L 88.65,136.9 L 89.77,123.38 L 90.88,109.84 L 91.99,96.13 L 93.1,85.25 L 94.21,77.86 L 95.32,73.27 L 96.43,70.91 L 97.54,69.85 L 98.65,69.35 L 99.76,69.03 L 100.88,68.85 L 101.99,68.75 L 103.1,68.59 L 104.21,68.43 L 105.32,68.37 L 106.43,68.37 L 107.54,68.43 L 108.65,68.54 L 109.76,68.58 L 110.88,68.55 L 111.99,68.57 L 113.1,68.56 L 114.21,68.46 L 115.32,68.38 L 116.43,68.36"
           style="fill:none;stroke:#0000ff;stroke-opacity:1;stroke-width:0.75;stroke-linecap:round;stroke-linejoin:round;stroke-miterlimit:10;stroke-dasharray:none"
           id="path2826" /><path
           d="M 61.89,68.44 L 63.72,70.56 L 65.55,76.65 L 67.38,75.05 L 69.21,73.53 L 71.04,74.28 L 72.87,74.79 L 74.7,75.66 L 76.53,77.55 L 78.36,79.22 L 80.18,85.17 L 82.01,92.04 L 83.84,93.56 L 85.67,96.83 L 87.5,104.06 L 89.33,115.82 L 91.16,131.92 L 92.99,152.57 L 94.82,173.36 L 96.65,186.88 L 98.48,203.25 L 100.31,204.44 L 102.13,189.57 L 103.96,165.74 L 105.79,137.59 L 107.62,110.72 L 109.45,89.61 L 111.28,78.66 L 113.11,75.21 L 114.94,75.3 L 116.77,73.7 L 118.6,72.32 L 120.43,70.98 L 122.25,70.55 L 124.08,70.47 L 125.91,70.1 L 127.74,69.38 L 129.57,69.16 L 131.4,68.82 L 133.23,68.5 L 135.06,68.65 L 136.89,69.13 L 138.72,69.03 L 140.55,68.64 L 142.37,68.58 L 144.2,68.48 L 146.03,68.67 L 147.86,68.67 L 149.69,68.42 L 151.52,68.36"
           style="fill:none;stroke:#ff0000;stroke-opacity:1;stroke-width:0.75;stroke-linecap:round;stroke-linejoin:round;stroke-miterlimit:10;stroke-dasharray:none"
           id="path2828" /><path
           d="M 95.04,56.8 L 95.04,244.91"
           style="fill:none;stroke:#000000;stroke-opacity:1;stroke-width:0.75;stroke-linecap:round;stroke-linejoin:round;stroke-miterlimit:10;stroke-dasharray:none"
           id="path2830" /><path
           d="M 61.99,68.83 L 63.1,72.99 L 64.21,89.62 L 65.32,116.04 L 66.43,126.4 L 67.55,119.52 L 68.66,117.36 L 69.77,121.46 L 70.88,126.77 L 71.99,133.49 L 73.1,141.87 L 74.21,150.92 L 75.32,160.58 L 76.43,171.75 L 77.54,182.38 L 78.66,189.24 L 79.77,192.51 L 80.88,193.2 L 81.99,190.78 L 83.1,185.26 L 84.21,177.37 L 85.32,171.13 L 86.43,165.04 L 87.54,152.43 L 88.65,136.9 L 89.77,123.38 L 90.88,109.84 L 91.99,96.13 L 93.1,85.25 L 94.21,77.86 L 95.32,73.27 L 96.43,70.91 L 97.54,69.85 L 98.65,69.35 L 99.76,69.03 L 100.88,68.85 L 101.99,68.75 L 103.1,68.59 L 104.21,68.43 L 105.32,68.37 L 106.43,68.37 L 107.54,68.43 L 108.65,68.54 L 109.76,68.58 L 110.88,68.55 L 111.99,68.57 L 113.1,68.56 L 114.21,68.46 L 115.32,68.38 L 116.43,68.36"
           style="fill:none;stroke:#0000ff;stroke-opacity:1;stroke-width:0.75;stroke-linecap:round;stroke-linejoin:round;stroke-miterlimit:10;stroke-dasharray:none"
           id="path2832" /><path
           d="M 61.37,68.52 L 63.34,72.06 L 65.31,84.02 L 67.27,84.35 L 69.24,80.3 L 71.21,82.88 L 73.17,86.25 L 75.14,88.76 L 77.11,92.45 L 79.07,97.4 L 81.04,105.23 L 83.01,112.56 L 84.97,122.92 L 86.94,137.88 L 88.91,148.19 L 90.87,163.2 L 92.84,185.42 L 94.81,199.06 L 96.77,196.3 L 98.74,178.1 L 100.71,146.84 L 102.67,115.32 L 104.64,90.25 L 106.61,76.35 L 108.57,72.06 L 110.54,70.06 L 112.51,69.19 L 114.47,69.49 L 116.44,69.53 L 118.41,69.45 L 120.37,69.44 L 122.34,69.15 L 124.31,68.9 L 126.27,68.93 L 128.24,68.95 L 130.21,68.94 L 132.17,68.98 L 134.14,68.81 L 136.11,68.88 L 138.07,69.01 L 140.04,68.96 L 142,68.55 L 143.97,68.37 L 145.94,68.35 L 147.9,68.35 L 149.87,68.37 L 151.84,68.47 L 153.8,68.53 L 155.77,68.4 L 157.74,68.36"
           style="fill:none;stroke:#000000;stroke-opacity:1;stroke-width:0.75;stroke-linecap:round;stroke-linejoin:round;stroke-miterlimit:10;stroke-dasharray:none"
           id="path2834" /><path
           d="M 95.04,56.8 L 95.04,244.91"
           style="fill:none;stroke:#000000;stroke-opacity:1;stroke-width:0.75;stroke-linecap:round;stroke-linejoin:round;stroke-miterlimit:10;stroke-dasharray:none"
           id="path2836" /><path
           d="M 61.99,68.83 L 63.1,72.99 L 64.21,89.62 L 65.32,116.04 L 66.43,126.4 L 67.55,119.52 L 68.66,117.36 L 69.77,121.46 L 70.88,126.77 L 71.99,133.49 L 73.1,141.87 L 74.21,150.92 L 75.32,160.58 L 76.43,171.75 L 77.54,182.38 L 78.66,189.24 L 79.77,192.51 L 80.88,193.2 L 81.99,190.78 L 83.1,185.26 L 84.21,177.37 L 85.32,171.13 L 86.43,165.04 L 87.54,152.43 L 88.65,136.9 L 89.77,123.38 L 90.88,109.84 L 91.99,96.13 L 93.1,85.25 L 94.21,77.86 L 95.32,73.27 L 96.43,70.91 L 97.54,69.85 L 98.65,69.35 L 99.76,69.03 L 100.88,68.85 L 101.99,68.75 L 103.1,68.59 L 104.21,68.43 L 105.32,68.37 L 106.43,68.37 L 107.54,68.43 L 108.65,68.54 L 109.76,68.58 L 110.88,68.55 L 111.99,68.57 L 113.1,68.56 L 114.21,68.46 L 115.32,68.38 L 116.43,68.36"
           style="fill:none;stroke:#0000ff;stroke-opacity:1;stroke-width:0.75;stroke-linecap:round;stroke-linejoin:round;stroke-miterlimit:10;stroke-dasharray:none"
           id="path2838" /></g></g><g
       id="g2840" /><g
       id="g2842"><path
         d="M 57.52,56.8 L 192.04,56.8 L 192.04,244.9 L 57.52,244.9 L 57.52,56.8 z"
         style="fill:none;stroke:#000000;stroke-opacity:1;stroke-width:0.75;stroke-linecap:round;stroke-linejoin:round;stroke-miterlimit:10;stroke-dasharray:none"
         id="path2844" /></g><g
       id="g2846" /><g
       id="g2848" /><g
       id="g2850"><g
         id="g2852"
         clip-path="url(#clipPath2854)"><path
   d="M 57.52,244.91 L 192.04,244.91 L 192.04,259.31 L 57.52,259.31 L 57.52,244.91 z"
   style="fill:#ffe5cc;fill-opacity:1;fill-rule:nonzero;stroke:#ffe5cc;stroke-opacity:1;stroke-width:0.75;stroke-linecap:round;stroke-linejoin:round;stroke-miterlimit:10;stroke-dasharray:none"
   id="path2858" /><text
   transform="matrix(1,0,0,-1,104.1,247.8)"
   id="text2860"><tspan
     style="fill:#000000;fill-opacity:1;fill-rule:nonzero;stroke:none;font-family:Helvetica;font-variant:normal;font-weight:normal;font-size:12;writing-mode:lr;-inkscape-font-specification:Helvetica"
     x="0"
     y="0"
     sodipodi:role="line"
     id="tspan2862" /></text>

</g></g><g
       id="g2864" /><g
       id="g2866"><path
         d="M 57.52,244.91 L 192.04,244.91 L 192.04,259.31 L 57.52,259.31 L 57.52,244.91 z"
         style="fill:none;stroke:#000000;stroke-opacity:1;stroke-width:0.75;stroke-linecap:round;stroke-linejoin:round;stroke-miterlimit:10;stroke-dasharray:none"
         id="path2868" /></g><g
       id="g2870" /><g
       id="g2872" /><g
       id="g2874" /><g
       id="g2876" /><g
       id="g2878" /><g
       id="g2880" /><g
       id="g2882"><path
   d="M 200.31,56.8 L 200.31,51.13"
   style="fill:none;stroke:#000000;stroke-opacity:1;stroke-width:0.75;stroke-linecap:round;stroke-linejoin:round;stroke-miterlimit:10;stroke-dasharray:none"
   id="path2884" /><path
   d="M 230.04,56.8 L 230.04,51.13"
   style="fill:none;stroke:#000000;stroke-opacity:1;stroke-width:0.75;stroke-linecap:round;stroke-linejoin:round;stroke-miterlimit:10;stroke-dasharray:none"
   id="path2886" /><path
   d="M 259.77,56.8 L 259.77,51.13"
   style="fill:none;stroke:#000000;stroke-opacity:1;stroke-width:0.75;stroke-linecap:round;stroke-linejoin:round;stroke-miterlimit:10;stroke-dasharray:none"
   id="path2888" /><path
   d="M 289.51,56.8 L 289.51,51.13"
   style="fill:none;stroke:#000000;stroke-opacity:1;stroke-width:0.75;stroke-linecap:round;stroke-linejoin:round;stroke-miterlimit:10;stroke-dasharray:none"
   id="path2890" /><path
   d="M 319.24,56.8 L 319.24,51.13"
   style="fill:none;stroke:#000000;stroke-opacity:1;stroke-width:0.75;stroke-linecap:round;stroke-linejoin:round;stroke-miterlimit:10;stroke-dasharray:none"
   id="path2892" /><path
   d="M 326.57,68.35 L 332.24,68.35"
   style="fill:none;stroke:#000000;stroke-opacity:1;stroke-width:0.75;stroke-linecap:round;stroke-linejoin:round;stroke-miterlimit:10;stroke-dasharray:none"
   id="path2894" /><path
   d="M 326.57,107.72 L 332.24,107.72"
   style="fill:none;stroke:#000000;stroke-opacity:1;stroke-width:0.75;stroke-linecap:round;stroke-linejoin:round;stroke-miterlimit:10;stroke-dasharray:none"
   id="path2896" /><path
   d="M 326.57,147.08 L 332.24,147.08"
   style="fill:none;stroke:#000000;stroke-opacity:1;stroke-width:0.75;stroke-linecap:round;stroke-linejoin:round;stroke-miterlimit:10;stroke-dasharray:none"
   id="path2898" /><path
   d="M 326.57,186.44 L 332.24,186.44"
   style="fill:none;stroke:#000000;stroke-opacity:1;stroke-width:0.75;stroke-linecap:round;stroke-linejoin:round;stroke-miterlimit:10;stroke-dasharray:none"
   id="path2900" /><path
   d="M 326.57,225.8 L 332.24,225.8"
   style="fill:none;stroke:#000000;stroke-opacity:1;stroke-width:0.75;stroke-linecap:round;stroke-linejoin:round;stroke-miterlimit:10;stroke-dasharray:none"
   id="path2902" /><text
   transform="matrix(1,0,0,-1,337.91,64.76)"
   id="text2904"><tspan
     style="fill:#000000;fill-opacity:1;fill-rule:nonzero;stroke:none;font-family:Helvetica;font-variant:normal;font-weight:normal;font-size:10;writing-mode:lr;-inkscape-font-specification:Helvetica"
     x="0 5.56 8.34"
     y="0"
     sodipodi:role="line"
     id="tspan2906">0.0</tspan></text>

<text
   transform="matrix(1,0,0,-1,337.91,104.13)"
   id="text2908"><tspan
     style="fill:#000000;fill-opacity:1;fill-rule:nonzero;stroke:none;font-family:Helvetica;font-variant:normal;font-weight:normal;font-size:10;writing-mode:lr;-inkscape-font-specification:Helvetica"
     x="0 5.56 8.34"
     y="0"
     sodipodi:role="line"
     id="tspan2910">0.5</tspan></text>

<text
   transform="matrix(1,0,0,-1,337.91,143.49)"
   id="text2912"><tspan
     style="fill:#000000;fill-opacity:1;fill-rule:nonzero;stroke:none;font-family:Helvetica;font-variant:normal;font-weight:normal;font-size:10;writing-mode:lr;-inkscape-font-specification:Helvetica"
     x="0 5.56 8.34"
     y="0"
     sodipodi:role="line"
     id="tspan2914">1.0</tspan></text>

<text
   transform="matrix(1,0,0,-1,337.91,182.85)"
   id="text2916"><tspan
     style="fill:#000000;fill-opacity:1;fill-rule:nonzero;stroke:none;font-family:Helvetica;font-variant:normal;font-weight:normal;font-size:10;writing-mode:lr;-inkscape-font-specification:Helvetica"
     x="0 5.56 8.34"
     y="0"
     sodipodi:role="line"
     id="tspan2918">1.5</tspan></text>

<text
   transform="matrix(1,0,0,-1,337.91,222.21)"
   id="text2920"><tspan
     style="fill:#000000;fill-opacity:1;fill-rule:nonzero;stroke:none;font-family:Helvetica;font-variant:normal;font-weight:normal;font-size:10;writing-mode:lr;-inkscape-font-specification:Helvetica"
     x="0 5.56 8.34"
     y="0"
     sodipodi:role="line"
     id="tspan2922">2.0</tspan></text>

</g><g
       id="g2924" /><g
       id="g2926"><g
         id="g2928"
         clip-path="url(#clipPath2930)"><path
           d="M 196.48,68.74 L 197.74,73.08 L 198.99,91.11 L 200.25,114.89 L 201.51,118.33 L 202.77,114.1 L 204.02,118.77 L 205.28,127.23 L 206.54,134.4 L 207.79,140.34 L 209.05,146.33 L 210.31,156.61 L 211.57,173.13 L 212.82,184.27 L 214.08,187.19 L 215.34,190.55 L 216.59,192.6 L 217.85,186.95 L 219.11,179.1 L 220.36,173.22 L 221.62,162.96 L 222.88,147.72 L 224.14,131.93 L 225.39,116.43 L 226.65,100.28 L 227.91,86.85 L 229.16,78.36 L 230.42,73.76 L 231.68,71.08 L 232.94,69.42 L 234.19,68.81 L 235.45,68.72 L 236.71,68.79 L 237.96,68.9 L 239.22,68.82 L 240.48,68.58 L 241.74,68.41 L 242.99,68.37 L 244.25,68.44 L 245.51,68.62 L 246.76,68.78 L 248.02,68.81 L 249.28,68.63 L 250.54,68.44 L 251.79,68.4 L 253.05,68.49 L 254.31,68.56 L 255.56,68.48 L 256.82,68.38 L 258.08,68.36"
           style="fill:none;stroke:#0000ff;stroke-opacity:1;stroke-width:0.75;stroke-linecap:round;stroke-linejoin:round;stroke-miterlimit:10;stroke-dasharray:none"
           id="path2934" /><path
           d="M 230.37,56.8 L 230.37,244.91"
           style="fill:none;stroke:#000000;stroke-opacity:1;stroke-width:0.75;stroke-linecap:round;stroke-linejoin:round;stroke-miterlimit:10;stroke-dasharray:none"
           id="path2936" /><path
           d="M 196.48,68.74 L 197.74,73.08 L 198.99,91.11 L 200.25,114.89 L 201.51,118.33 L 202.77,114.1 L 204.02,118.77 L 205.28,127.23 L 206.54,134.4 L 207.79,140.34 L 209.05,146.33 L 210.31,156.61 L 211.57,173.13 L 212.82,184.27 L 214.08,187.19 L 215.34,190.55 L 216.59,192.6 L 217.85,186.95 L 219.11,179.1 L 220.36,173.22 L 221.62,162.96 L 222.88,147.72 L 224.14,131.93 L 225.39,116.43 L 226.65,100.28 L 227.91,86.85 L 229.16,78.36 L 230.42,73.76 L 231.68,71.08 L 232.94,69.42 L 234.19,68.81 L 235.45,68.72 L 236.71,68.79 L 237.96,68.9 L 239.22,68.82 L 240.48,68.58 L 241.74,68.41 L 242.99,68.37 L 244.25,68.44 L 245.51,68.62 L 246.76,68.78 L 248.02,68.81 L 249.28,68.63 L 250.54,68.44 L 251.79,68.4 L 253.05,68.49 L 254.31,68.56 L 255.56,68.48 L 256.82,68.38 L 258.08,68.36"
           style="fill:none;stroke:#0000ff;stroke-opacity:1;stroke-width:0.75;stroke-linecap:round;stroke-linejoin:round;stroke-miterlimit:10;stroke-dasharray:none"
           id="path2938" /><path
           d="M 196.86,68.46 L 198.5,71.2 L 200.14,79.33 L 201.78,78.75 L 203.42,79.03 L 205.05,81.01 L 206.69,83.35 L 208.33,88.92 L 209.97,98.01 L 211.6,104.92 L 213.24,111.6 L 214.88,120.45 L 216.52,132.45 L 218.15,146.1 L 219.79,162.95 L 221.43,184.83 L 223.07,212.66 L 224.7,232.67 L 226.34,226.6 L 227.98,200.22 L 229.62,166.48 L 231.25,128.77 L 232.89,101.61 L 234.53,84.81 L 236.17,74.75 L 237.81,71.48 L 239.44,70.36 L 241.08,69.72 L 242.72,68.99 L 244.36,68.67 L 245.99,68.94 L 247.63,69.14 L 249.27,69.26 L 250.91,69.29 L 252.54,69.3 L 254.18,69.55 L 255.82,69.86 L 257.46,69.58 L 259.09,69.11 L 260.73,68.72 L 262.37,68.72 L 264.01,68.99 L 265.64,68.79 L 267.28,68.71 L 268.92,68.84 L 270.56,68.65 L 272.2,68.49 L 273.83,68.59 L 275.47,68.42 L 277.11,68.36"
           style="fill:none;stroke:#000000;stroke-opacity:1;stroke-width:0.75;stroke-linecap:round;stroke-linejoin:round;stroke-miterlimit:10;stroke-dasharray:none"
           id="path2940" /><path
           d="M 230.37,56.8 L 230.37,244.91"
           style="fill:none;stroke:#000000;stroke-opacity:1;stroke-width:0.75;stroke-linecap:round;stroke-linejoin:round;stroke-miterlimit:10;stroke-dasharray:none"
           id="path2942" /><path
           d="M 196.48,68.74 L 197.74,73.08 L 198.99,91.11 L 200.25,114.89 L 201.51,118.33 L 202.77,114.1 L 204.02,118.77 L 205.28,127.23 L 206.54,134.4 L 207.79,140.34 L 209.05,146.33 L 210.31,156.61 L 211.57,173.13 L 212.82,184.27 L 214.08,187.19 L 215.34,190.55 L 216.59,192.6 L 217.85,186.95 L 219.11,179.1 L 220.36,173.22 L 221.62,162.96 L 222.88,147.72 L 224.14,131.93 L 225.39,116.43 L 226.65,100.28 L 227.91,86.85 L 229.16,78.36 L 230.42,73.76 L 231.68,71.08 L 232.94,69.42 L 234.19,68.81 L 235.45,68.72 L 236.71,68.79 L 237.96,68.9 L 239.22,68.82 L 240.48,68.58 L 241.74,68.41 L 242.99,68.37 L 244.25,68.44 L 245.51,68.62 L 246.76,68.78 L 248.02,68.81 L 249.28,68.63 L 250.54,68.44 L 251.79,68.4 L 253.05,68.49 L 254.31,68.56 L 255.56,68.48 L 256.82,68.38 L 258.08,68.36"
           style="fill:none;stroke:#0000ff;stroke-opacity:1;stroke-width:0.75;stroke-linecap:round;stroke-linejoin:round;stroke-miterlimit:10;stroke-dasharray:none"
           id="path2944" /><path
           d="M 196.47,68.45 L 198.39,71.09 L 200.31,78.13 L 202.22,75.64 L 204.14,73.93 L 206.06,73.23 L 207.98,73.17 L 209.89,75.62 L 211.81,77.98 L 213.73,80.16 L 215.64,83.32 L 217.56,88.04 L 219.48,95.73 L 221.39,103.11 L 223.31,107.33 L 225.23,118.25 L 227.14,138.81 L 229.06,162.69 L 230.98,179.99 L 232.9,194.91 L 234.81,206.34 L 236.73,202.7 L 238.65,175.44 L 240.56,141.44 L 242.48,112.98 L 244.4,90.64 L 246.31,80.61 L 248.23,76.59 L 250.15,73.32 L 252.06,72.03 L 253.98,72.08 L 255.9,71.48 L 257.82,70.48 L 259.73,69.91 L 261.65,70.12 L 263.57,69.68 L 265.48,69.13 L 267.4,69.31 L 269.32,69.69 L 271.23,69.37 L 273.15,68.84 L 275.07,69.02 L 276.99,69.18 L 278.9,68.79 L 280.82,68.63 L 282.74,68.65 L 284.65,68.59 L 286.57,68.59 L 288.49,68.43 L 290.4,68.36"
           style="fill:none;stroke:#ff0000;stroke-opacity:1;stroke-width:0.75;stroke-linecap:round;stroke-linejoin:round;stroke-miterlimit:10;stroke-dasharray:none"
           id="path2946" /><path
           d="M 230.37,56.8 L 230.37,244.91"
           style="fill:none;stroke:#000000;stroke-opacity:1;stroke-width:0.75;stroke-linecap:round;stroke-linejoin:round;stroke-miterlimit:10;stroke-dasharray:none"
           id="path2948" /><path
           d="M 196.48,68.74 L 197.74,73.08 L 198.99,91.11 L 200.25,114.89 L 201.51,118.33 L 202.77,114.1 L 204.02,118.77 L 205.28,127.23 L 206.54,134.4 L 207.79,140.34 L 209.05,146.33 L 210.31,156.61 L 211.57,173.13 L 212.82,184.27 L 214.08,187.19 L 215.34,190.55 L 216.59,192.6 L 217.85,186.95 L 219.11,179.1 L 220.36,173.22 L 221.62,162.96 L 222.88,147.72 L 224.14,131.93 L 225.39,116.43 L 226.65,100.28 L 227.91,86.85 L 229.16,78.36 L 230.42,73.76 L 231.68,71.08 L 232.94,69.42 L 234.19,68.81 L 235.45,68.72 L 236.71,68.79 L 237.96,68.9 L 239.22,68.82 L 240.48,68.58 L 241.74,68.41 L 242.99,68.37 L 244.25,68.44 L 245.51,68.62 L 246.76,68.78 L 248.02,68.81 L 249.28,68.63 L 250.54,68.44 L 251.79,68.4 L 253.05,68.49 L 254.31,68.56 L 255.56,68.48 L 256.82,68.38 L 258.08,68.36"
           style="fill:none;stroke:#0000ff;stroke-opacity:1;stroke-width:0.75;stroke-linecap:round;stroke-linejoin:round;stroke-miterlimit:10;stroke-dasharray:none"
           id="path2950" /><path
           d="M 196.04,68.54 L 197.96,72.61 L 199.87,85.75 L 201.79,84.81 L 203.7,80.91 L 205.62,84.23 L 207.53,86.62 L 209.45,89.55 L 211.37,93.03 L 213.28,95.25 L 215.2,99.87 L 217.11,106.06 L 219.03,116.86 L 220.94,134.99 L 222.86,147.79 L 224.78,161.55 L 226.69,180.34 L 228.61,197.71 L 230.52,199.09 L 232.44,179.75 L 234.35,152.68 L 236.27,126.38 L 238.18,103.61 L 240.1,86.34 L 242.02,75.22 L 243.93,71.35 L 245.85,70.5 L 247.76,70.07 L 249.68,69.78 L 251.59,69.67 L 253.51,69.41 L 255.43,69.75 L 257.34,69.79 L 259.26,69.39 L 261.17,69.15 L 263.09,69.32 L 265,69.3 L 266.92,69.32 L 268.83,69.02 L 270.75,68.96 L 272.67,68.95 L 274.58,68.74 L 276.5,68.52 L 278.41,68.55 L 280.33,68.79 L 282.24,68.84 L 284.16,68.74 L 286.07,68.6 L 287.99,68.41 L 289.91,68.36"
           style="fill:none;stroke:#000000;stroke-opacity:1;stroke-width:0.75;stroke-linecap:round;stroke-linejoin:round;stroke-miterlimit:10;stroke-dasharray:none"
           id="path2952" /><path
           d="M 230.37,56.8 L 230.37,244.91"
           style="fill:none;stroke:#000000;stroke-opacity:1;stroke-width:0.75;stroke-linecap:round;stroke-linejoin:round;stroke-miterlimit:10;stroke-dasharray:none"
           id="path2954" /><path
           d="M 196.48,68.74 L 197.74,73.08 L 198.99,91.11 L 200.25,114.89 L 201.51,118.33 L 202.77,114.1 L 204.02,118.77 L 205.28,127.23 L 206.54,134.4 L 207.79,140.34 L 209.05,146.33 L 210.31,156.61 L 211.57,173.13 L 212.82,184.27 L 214.08,187.19 L 215.34,190.55 L 216.59,192.6 L 217.85,186.95 L 219.11,179.1 L 220.36,173.22 L 221.62,162.96 L 222.88,147.72 L 224.14,131.93 L 225.39,116.43 L 226.65,100.28 L 227.91,86.85 L 229.16,78.36 L 230.42,73.76 L 231.68,71.08 L 232.94,69.42 L 234.19,68.81 L 235.45,68.72 L 236.71,68.79 L 237.96,68.9 L 239.22,68.82 L 240.48,68.58 L 241.74,68.41 L 242.99,68.37 L 244.25,68.44 L 245.51,68.62 L 246.76,68.78 L 248.02,68.81 L 249.28,68.63 L 250.54,68.44 L 251.79,68.4 L 253.05,68.49 L 254.31,68.56 L 255.56,68.48 L 256.82,68.38 L 258.08,68.36"
           style="fill:none;stroke:#0000ff;stroke-opacity:1;stroke-width:0.75;stroke-linecap:round;stroke-linejoin:round;stroke-miterlimit:10;stroke-dasharray:none"
           id="path2956" /></g></g><g
       id="g2958" /><g
       id="g2960"><path
         d="M 192.05,56.8 L 326.57,56.8 L 326.57,244.9 L 192.05,244.9 L 192.05,56.8 z"
         style="fill:none;stroke:#000000;stroke-opacity:1;stroke-width:0.75;stroke-linecap:round;stroke-linejoin:round;stroke-miterlimit:10;stroke-dasharray:none"
         id="path2962" /></g><g
       id="g2964" /><g
       id="g2966" /><g
       id="g2968"><g
         id="g2970"
         clip-path="url(#clipPath2972)"><path
   d="M 192.05,244.91 L 326.57,244.91 L 326.57,259.31 L 192.05,259.31 L 192.05,244.91 z"
   style="fill:#ffe5cc;fill-opacity:1;fill-rule:nonzero;stroke:#ffe5cc;stroke-opacity:1;stroke-width:0.75;stroke-linecap:round;stroke-linejoin:round;stroke-miterlimit:10;stroke-dasharray:none"
   id="path2976" /><text
   transform="matrix(1,0,0,-1,238.63,247.8)"
   id="text2978"><tspan
     style="fill:#000000;fill-opacity:1;fill-rule:nonzero;stroke:none;font-family:Helvetica;font-variant:normal;font-weight:normal;font-size:12;writing-mode:lr;-inkscape-font-specification:Helvetica"
     x="0"
     y="0"
     sodipodi:role="line"
     id="tspan2980" /></text>

</g></g><g
       id="g2982" /><g
       id="g2984"><path
         d="M 192.05,244.91 L 326.57,244.91 L 326.57,259.31 L 192.05,259.31 L 192.05,244.91 z"
         style="fill:none;stroke:#000000;stroke-opacity:1;stroke-width:0.75;stroke-linecap:round;stroke-linejoin:round;stroke-miterlimit:10;stroke-dasharray:none"
         id="path2986" /></g><g
       id="g2988" /><g
       id="g2990" /><g
       id="g2992" /><g
       id="g2994" /><path
       d="M 116.3077,259.97429 L 116.3077,448.07429"
       style="fill:none;fill-opacity:1;stroke:#000000;stroke-width:0.75040001;stroke-linecap:round;stroke-linejoin:round;stroke-miterlimit:10;stroke-dasharray:0.7504, 1.5008;stroke-dashoffset:0;stroke-opacity:1"
       id="path2996" /><path
       d="M 244.8583,258.95405 L 244.8583,447.05405"
       style="fill:none;fill-opacity:1;stroke:#000000;stroke-width:0.75040001;stroke-linecap:round;stroke-linejoin:round;stroke-miterlimit:10;stroke-dasharray:0.7504, 1.5008;stroke-dashoffset:0;stroke-opacity:1"
       id="path3776" /><path
       d="M 380.55061,259.46417 L 380.55061,447.56417"
       style="fill:none;fill-opacity:1;stroke:#000000;stroke-width:0.75040001;stroke-linecap:round;stroke-linejoin:round;stroke-miterlimit:10;stroke-dasharray:0.7504, 1.5008;stroke-dashoffset:0;stroke-opacity:1"
       id="path3778" /><path
       d="M 110.69635,57.456073 L 110.69635,245.55608"
       style="fill:none;fill-opacity:1;stroke:#000000;stroke-width:0.75040001;stroke-linecap:round;stroke-linejoin:round;stroke-miterlimit:10;stroke-dasharray:0.7504, 1.5008;stroke-dashoffset:0;stroke-opacity:1"
       id="path3780" /><path
       d="M 244.8583,56.43583 L 244.8583,244.53583"
       style="fill:none;fill-opacity:1;stroke:#000000;stroke-width:0.75040001;stroke-linecap:round;stroke-linejoin:round;stroke-miterlimit:10;stroke-dasharray:0.7504, 1.5008;stroke-dashoffset:0;stroke-opacity:1"
       id="path3782" /><text
       xml:space="preserve"
       style="font-size:11.19999981px;font-style:normal;font-variant:normal;font-weight:normal;font-stretch:normal;text-align:start;line-height:125%;writing-mode:lr-tb;text-anchor:start;fill:#000000;fill-opacity:1;stroke:none;stroke-width:1px;stroke-linecap:butt;stroke-linejoin:miter;stroke-opacity:1;font-family:Bitstream Vera Sans;-inkscape-font-specification:Bitstream Vera Sans"
       x="97.63414"
       y="-443.26309"
       id="text2685"
       transform="scale(0.9839506,-1.0163112)"
       sodipodi:linespacing="125%"><tspan
         sodipodi:role="line"
         id="tspan2687"
         x="97.63414"
         y="-443.26309">Plate 8774</tspan></text>
<text
       xml:space="preserve"
       style="font-size:11.19999981px;font-style:normal;font-variant:normal;font-weight:normal;font-stretch:normal;text-align:start;line-height:125%;writing-mode:lr-tb;text-anchor:start;fill:#000000;fill-opacity:1;stroke:none;stroke-width:1px;stroke-linecap:butt;stroke-linejoin:miter;stroke-opacity:1;font-family:Bitstream Vera Sans;-inkscape-font-specification:Bitstream Vera Sans"
       x="370.4671"
       y="-442.54611"
       id="text2693"
       transform="scale(0.9839506,-1.0163112)"
       sodipodi:linespacing="125%"><tspan
         sodipodi:role="line"
         id="tspan2695"
         x="370.4671"
         y="-442.54611">Plate 9206</tspan></text>
<text
       xml:space="preserve"
       style="font-size:11.19999981px;font-style:normal;font-variant:normal;font-weight:normal;font-stretch:normal;text-align:start;line-height:125%;writing-mode:lr-tb;text-anchor:start;fill:#000000;fill-opacity:1;stroke:none;stroke-width:1px;stroke-linecap:butt;stroke-linejoin:miter;stroke-opacity:1;font-family:Bitstream Vera Sans;-inkscape-font-specification:Bitstream Vera Sans"
       x="235.1537"
       y="-244.2821"
       id="text2697"
       transform="scale(0.9839506,-1.0163112)"
       sodipodi:linespacing="125%"><tspan
         sodipodi:role="line"
         id="tspan2699"
         x="235.1537"
         y="-244.2821">Plate 9208</tspan></text>
<text
       xml:space="preserve"
       style="font-size:11.19999981px;font-style:normal;font-variant:normal;font-weight:normal;font-stretch:normal;text-align:start;line-height:125%;writing-mode:lr-tb;text-anchor:start;fill:#000000;fill-opacity:1;stroke:none;stroke-width:1px;stroke-linecap:butt;stroke-linejoin:miter;stroke-opacity:1;font-family:Bitstream Vera Sans;-inkscape-font-specification:Bitstream Vera Sans"
       x="96.211212"
       y="-244.2821"
       id="text2701"
       transform="scale(0.9839506,-1.0163112)"
       sodipodi:linespacing="125%"><tspan
         sodipodi:role="line"
         id="tspan2703"
         x="96.211212"
         y="-244.2821">Plate 9207</tspan></text>
<text
       xml:space="preserve"
       style="font-size:11.19999981px;font-style:normal;font-variant:normal;font-weight:normal;font-stretch:normal;text-align:start;line-height:125%;writing-mode:lr-tb;text-anchor:start;fill:#000000;fill-opacity:1;stroke:none;stroke-width:1px;stroke-linecap:butt;stroke-linejoin:miter;stroke-opacity:1;font-family:Bitstream Vera Sans;-inkscape-font-specification:Bitstream Vera Sans"
       x="235.1537"
       y="-443.0481"
       id="text2705"
       transform="scale(0.9839506,-1.0163112)"
       sodipodi:linespacing="125%"><tspan
         sodipodi:role="line"
         id="tspan2707"
         x="235.1537"
         y="-443.0481">Plate 8775</tspan></text>
</g></svg>