<?xml version="1.0" encoding="UTF-8" standalone="no"?>
<!-- Created with Inkscape (http://www.inkscape.org/) -->
<svg
   xmlns:dc="http://purl.org/dc/elements/1.1/"
   xmlns:cc="http://creativecommons.org/ns#"
   xmlns:rdf="http://www.w3.org/1999/02/22-rdf-syntax-ns#"
   xmlns:svg="http://www.w3.org/2000/svg"
   xmlns="http://www.w3.org/2000/svg"
   xmlns:sodipodi="http://sodipodi.sourceforge.net/DTD/sodipodi-0.dtd"
   xmlns:inkscape="http://www.inkscape.org/namespaces/inkscape"
   id="svg2403"
   sodipodi:version="0.32"
   inkscape:version="0.46"
   width="630"
   height="630"
   xml:space="preserve"
   sodipodi:docname="isoplot.svg"
   inkscape:output_extension="org.inkscape.output.svg.inkscape"><metadata
     id="metadata2408"><rdf:RDF><cc:Work
         rdf:about=""><dc:format>image/svg+xml</dc:format><dc:type
           rdf:resource="http://purl.org/dc/dcmitype/StillImage" /></cc:Work></rdf:RDF></metadata><defs
     id="defs2406"><marker
       inkscape:stockid="Arrow1Mstart"
       orient="auto"
       refY="0.0"
       refX="0.0"
       id="Arrow1Mstart"
       style="overflow:visible"><path
         id="path3401"
         d="M 0.0,0.0 L 5.0,-5.0 L -12.5,0.0 L 5.0,5.0 L 0.0,0.0 z "
         style="fill-rule:evenodd;stroke:#000000;stroke-width:1.0pt;marker-start:none"
         transform="scale(0.4) translate(10,0)" /></marker><inkscape:perspective
       sodipodi:type="inkscape:persp3d"
       inkscape:vp_x="0 : 526.18109 : 1"
       inkscape:vp_y="0 : 1000 : 0"
       inkscape:vp_z="744.09448 : 526.18109 : 1"
       inkscape:persp3d-origin="372.04724 : 350.78739 : 1"
       id="perspective2410" /><clipPath
       clipPathUnits="userSpaceOnUse"
       id="clipPath2528"><path
         d="M 57.52,56.8 L 474.99,56.8 L 474.99,454.59 L 57.52,454.59 L 57.52,56.8 z"
         id="path2530" /></clipPath><clipPath
       clipPathUnits="userSpaceOnUse"
       id="clipPath2576"><path
         d="M 57.52,454.59 L 474.99,454.59 L 474.99,468.99 L 57.52,468.99 L 57.52,454.59 z"
         id="path2578" /></clipPath></defs><sodipodi:namedview
     inkscape:window-height="811"
     inkscape:window-width="907"
     inkscape:pageshadow="2"
     inkscape:pageopacity="0.0"
     guidetolerance="10.0"
     gridtolerance="10.0"
     objecttolerance="10.0"
     borderopacity="1.0"
     bordercolor="#666666"
     pagecolor="#ffffff"
     id="base"
     showgrid="false"
     inkscape:zoom="1.1627978"
     inkscape:cx="188.58077"
     inkscape:cy="383.79958"
     inkscape:window-x="44"
     inkscape:window-y="55"
     inkscape:current-layer="g2412" /><g
     id="g2412"
     inkscape:groupmode="layer"
     inkscape:label="isoplot"
     transform="matrix(1.25,0,0,-1.25,0,630)"><g
   id="g2414" /><g
   id="g2416" /><g
   id="g2418"><text
   transform="matrix(1,0,0,-1,248.08,18)"
   id="text2420"><tspan
     style="fill:#000000;fill-opacity:1;fill-rule:nonzero;stroke:none;font-family:Helvetica;font-variant:normal;font-weight:normal;font-size:12;writing-mode:lr;-inkscape-font-specification:Helvetica"
     x="0 7.332 14.004 20.676 27.684"
     y="0"
     sodipodi:role="line"
     id="tspan2422">FL1−H</tspan></text>



</g><g
   id="g2424"><text
   transform="matrix(0,1,1,0,20.62,235.69)"
   id="text2426"><tspan
     style="fill:#000000;fill-opacity:1;fill-rule:nonzero;stroke:none;font-family:Helvetica;font-variant:normal;font-weight:normal;font-size:12;writing-mode:lr;-inkscape-font-specification:Helvetica"
     x="0 8.664 15.336 22.008 28.008 30.672 34.008"
     y="0"
     sodipodi:role="line"
     id="tspan2428">Density</tspan></text>



</g><g
   id="g2430" /><g
   id="g2432"><path
     d="M 83.16,468.99 L 83.16,474.66"
     style="fill:none;stroke:#000000;stroke-opacity:1;stroke-width:0.75;stroke-linecap:round;stroke-linejoin:round;stroke-miterlimit:10;stroke-dasharray:none"
     id="path2434" /><path
     d="M 187.92,468.99 L 187.92,474.66"
     style="fill:none;stroke:#000000;stroke-opacity:1;stroke-width:0.75;stroke-linecap:round;stroke-linejoin:round;stroke-miterlimit:10;stroke-dasharray:none"
     id="path2436" /><path
     d="M 292.68,468.99 L 292.68,474.66"
     style="fill:none;stroke:#000000;stroke-opacity:1;stroke-width:0.75;stroke-linecap:round;stroke-linejoin:round;stroke-miterlimit:10;stroke-dasharray:none"
     id="path2438" /><path
     d="M 397.44,468.99 L 397.44,474.66"
     style="fill:none;stroke:#000000;stroke-opacity:1;stroke-width:0.75;stroke-linecap:round;stroke-linejoin:round;stroke-miterlimit:10;stroke-dasharray:none"
     id="path2440" /></g><g
   id="g2442" /><g
   id="g2444"><path
   d="M 57.52,81.23 L 51.85,81.23"
   style="fill:none;stroke:#000000;stroke-opacity:1;stroke-width:0.75;stroke-linecap:round;stroke-linejoin:round;stroke-miterlimit:10;stroke-dasharray:none"
   id="path2446" /><path
   d="M 57.52,152.28 L 51.85,152.28"
   style="fill:none;stroke:#000000;stroke-opacity:1;stroke-width:0.75;stroke-linecap:round;stroke-linejoin:round;stroke-miterlimit:10;stroke-dasharray:none"
   id="path2448" /><path
   d="M 57.52,223.34 L 51.85,223.34"
   style="fill:none;stroke:#000000;stroke-opacity:1;stroke-width:0.75;stroke-linecap:round;stroke-linejoin:round;stroke-miterlimit:10;stroke-dasharray:none"
   id="path2450" /><path
   d="M 57.52,294.39 L 51.85,294.39"
   style="fill:none;stroke:#000000;stroke-opacity:1;stroke-width:0.75;stroke-linecap:round;stroke-linejoin:round;stroke-miterlimit:10;stroke-dasharray:none"
   id="path2452" /><path
   d="M 57.52,365.44 L 51.85,365.44"
   style="fill:none;stroke:#000000;stroke-opacity:1;stroke-width:0.75;stroke-linecap:round;stroke-linejoin:round;stroke-miterlimit:10;stroke-dasharray:none"
   id="path2454" /><path
   d="M 57.52,436.5 L 51.85,436.5"
   style="fill:none;stroke:#000000;stroke-opacity:1;stroke-width:0.75;stroke-linecap:round;stroke-linejoin:round;stroke-miterlimit:10;stroke-dasharray:none"
   id="path2456" /><text
   transform="matrix(1,0,0,-1,32.29,77.64)"
   id="text2458"><tspan
     style="fill:#000000;fill-opacity:1;fill-rule:nonzero;stroke:none;font-family:Helvetica;font-variant:normal;font-weight:normal;font-size:10;writing-mode:lr;-inkscape-font-specification:Helvetica"
     x="0 5.56 8.34"
     y="0"
     sodipodi:role="line"
     id="tspan2460">0.0</tspan></text>



<text
   transform="matrix(1,0,0,-1,32.29,148.69)"
   id="text2462"><tspan
     style="fill:#000000;fill-opacity:1;fill-rule:nonzero;stroke:none;font-family:Helvetica;font-variant:normal;font-weight:normal;font-size:10;writing-mode:lr;-inkscape-font-specification:Helvetica"
     x="0 5.56 8.34"
     y="0"
     sodipodi:role="line"
     id="tspan2464">0.5</tspan></text>



<text
   transform="matrix(1,0,0,-1,32.29,219.75)"
   id="text2466"><tspan
     style="fill:#000000;fill-opacity:1;fill-rule:nonzero;stroke:none;font-family:Helvetica;font-variant:normal;font-weight:normal;font-size:10;writing-mode:lr;-inkscape-font-specification:Helvetica"
     x="0 5.56 8.34"
     y="0"
     sodipodi:role="line"
     id="tspan2468">1.0</tspan></text>



<text
   transform="matrix(1,0,0,-1,32.29,290.8)"
   id="text2470"><tspan
     style="fill:#000000;fill-opacity:1;fill-rule:nonzero;stroke:none;font-family:Helvetica;font-variant:normal;font-weight:normal;font-size:10;writing-mode:lr;-inkscape-font-specification:Helvetica"
     x="0 5.56 8.34"
     y="0"
     sodipodi:role="line"
     id="tspan2472">1.5</tspan></text>



<text
   transform="matrix(1,0,0,-1,32.29,361.85)"
   id="text2474"><tspan
     style="fill:#000000;fill-opacity:1;fill-rule:nonzero;stroke:none;font-family:Helvetica;font-variant:normal;font-weight:normal;font-size:10;writing-mode:lr;-inkscape-font-specification:Helvetica"
     x="0 5.56 8.34"
     y="0"
     sodipodi:role="line"
     id="tspan2476">2.0</tspan></text>



<text
   transform="matrix(1,0,0,-1,32.29,432.91)"
   id="text2478"><tspan
     style="fill:#000000;fill-opacity:1;fill-rule:nonzero;stroke:none;font-family:Helvetica;font-variant:normal;font-weight:normal;font-size:10;writing-mode:lr;-inkscape-font-specification:Helvetica"
     x="0 5.56 8.34"
     y="0"
     sodipodi:role="line"
     id="tspan2480">2.5</tspan></text>



</g><g
   id="g2482" /><g
   id="g2484"><path
   d="M 83.16,56.8 L 83.16,51.13"
   style="fill:none;stroke:#000000;stroke-opacity:1;stroke-width:0.75;stroke-linecap:round;stroke-linejoin:round;stroke-miterlimit:10;stroke-dasharray:none"
   id="path2486" /><path
   d="M 187.92,56.8 L 187.92,51.13"
   style="fill:none;stroke:#000000;stroke-opacity:1;stroke-width:0.75;stroke-linecap:round;stroke-linejoin:round;stroke-miterlimit:10;stroke-dasharray:none"
   id="path2488" /><path
   d="M 292.68,56.8 L 292.68,51.13"
   style="fill:none;stroke:#000000;stroke-opacity:1;stroke-width:0.75;stroke-linecap:round;stroke-linejoin:round;stroke-miterlimit:10;stroke-dasharray:none"
   id="path2490" /><path
   d="M 397.44,56.8 L 397.44,51.13"
   style="fill:none;stroke:#000000;stroke-opacity:1;stroke-width:0.75;stroke-linecap:round;stroke-linejoin:round;stroke-miterlimit:10;stroke-dasharray:none"
   id="path2492" /><text
   transform="matrix(1,0,0,-1,76.21,38.29)"
   id="text2494"><tspan
     style="font-size:10px;font-variant:normal;font-weight:normal;writing-mode:lr-tb;fill:#000000;fill-opacity:1;fill-rule:nonzero;stroke:none;font-family:Helvetica;-inkscape-font-specification:Helvetica"
     x="0"
     y="0"
     sodipodi:role="line"
     id="tspan2496">10</tspan></text>



<text
   transform="matrix(1,0,0,-1,180.97,38.29)"
   id="text2498"><tspan
     style="font-size:10px;font-variant:normal;font-weight:normal;writing-mode:lr-tb;fill:#000000;fill-opacity:1;fill-rule:nonzero;stroke:none;font-family:Helvetica;-inkscape-font-specification:Helvetica"
     x="0"
     y="0"
     sodipodi:role="line"
     id="tspan2500">10</tspan></text>



<text
   transform="matrix(1,0,0,-1,285.73,38.29)"
   id="text2502"><tspan
     style="font-size:10px;font-variant:normal;font-weight:normal;writing-mode:lr-tb;fill:#000000;fill-opacity:1;fill-rule:nonzero;stroke:none;font-family:Helvetica;-inkscape-font-specification:Helvetica"
     x="0"
     sodipodi:role="line"
     id="tspan2504"
     y="0">10</tspan></text>



<text
   transform="matrix(1,0,0,-1,390.49,38.29)"
   id="text2506"><tspan
     style="font-size:10px;font-variant:normal;font-weight:normal;writing-mode:lr-tb;fill:#000000;fill-opacity:1;fill-rule:nonzero;stroke:none;font-family:Helvetica;-inkscape-font-specification:Helvetica"
     x="0"
     y="0"
     sodipodi:role="line"
     id="tspan2508">10</tspan></text>



<path
   d="M 474.99,81.23 L 480.66,81.23"
   style="fill:none;stroke:#000000;stroke-opacity:1;stroke-width:0.75;stroke-linecap:round;stroke-linejoin:round;stroke-miterlimit:10;stroke-dasharray:none"
   id="path2510" /><path
   d="M 474.99,152.28 L 480.66,152.28"
   style="fill:none;stroke:#000000;stroke-opacity:1;stroke-width:0.75;stroke-linecap:round;stroke-linejoin:round;stroke-miterlimit:10;stroke-dasharray:none"
   id="path2512" /><path
   d="M 474.99,223.34 L 480.66,223.34"
   style="fill:none;stroke:#000000;stroke-opacity:1;stroke-width:0.75;stroke-linecap:round;stroke-linejoin:round;stroke-miterlimit:10;stroke-dasharray:none"
   id="path2514" /><path
   d="M 474.99,294.39 L 480.66,294.39"
   style="fill:none;stroke:#000000;stroke-opacity:1;stroke-width:0.75;stroke-linecap:round;stroke-linejoin:round;stroke-miterlimit:10;stroke-dasharray:none"
   id="path2516" /><path
   d="M 474.99,365.44 L 480.66,365.44"
   style="fill:none;stroke:#000000;stroke-opacity:1;stroke-width:0.75;stroke-linecap:round;stroke-linejoin:round;stroke-miterlimit:10;stroke-dasharray:none"
   id="path2518" /><path
   d="M 474.99,436.5 L 480.66,436.5"
   style="fill:none;stroke:#000000;stroke-opacity:1;stroke-width:0.75;stroke-linecap:round;stroke-linejoin:round;stroke-miterlimit:10;stroke-dasharray:none"
   id="path2520" /></g><g
   id="g2522" /><g
   id="g2524"><g
     id="g2526"
     clip-path="url(#clipPath2528)"><path
       d="M 62.85,81.3 L 69.47,82.06 L 76.08,85.12 L 82.69,88.85 L 89.31,88.72 L 95.92,87.22 L 102.53,86.95 L 109.15,87.36 L 115.76,88.66 L 122.38,91.26 L 128.99,95.28 L 135.6,99.66 L 142.22,102.15 L 148.83,105.33 L 155.44,111.4 L 162.06,120.03 L 168.67,131.77 L 175.28,141.25 L 181.9,147.3 L 188.51,158.48 L 195.13,173.97 L 201.74,190.19 L 208.35,208.71 L 214.97,227.34 L 221.58,245.04 L 228.19,263.21 L 234.81,288.5 L 241.42,320.22 L 248.03,348.38 L 254.65,369.86 L 261.26,380.96 L 267.87,383.39 L 274.49,381.88 L 281.1,369.46 L 287.72,342.84 L 294.33,305.99 L 300.94,260.94 L 307.56,213.17 L 314.17,173.65 L 320.78,143.09 L 327.4,119.04 L 334.01,102.72 L 340.62,93.49 L 347.24,87.86 L 353.85,84.4 L 360.47,82.92 L 367.08,82.26 L 373.69,81.65 L 380.31,81.31 L 386.92,81.24"
       style="fill:none;stroke:#ff0000;stroke-opacity:1;stroke-width:0.75000000000000000;stroke-linecap:round;stroke-linejoin:round;stroke-miterlimit:10;stroke-dasharray:none"
       id="path2532" /><path
       d="M 350.34,56.8 L 350.34,454.59"
       style="fill:none;stroke:#000000;stroke-opacity:1;stroke-width:0.75;stroke-linecap:round;stroke-linejoin:round;stroke-miterlimit:10;stroke-dasharray:none"
       id="path2534" /><path
       d="M 62.85,81.3 L 69.47,82.06 L 76.08,85.12 L 82.69,88.85 L 89.31,88.72 L 95.92,87.22 L 102.53,86.95 L 109.15,87.36 L 115.76,88.66 L 122.38,91.26 L 128.99,95.28 L 135.6,99.66 L 142.22,102.15 L 148.83,105.33 L 155.44,111.4 L 162.06,120.03 L 168.67,131.77 L 175.28,141.25 L 181.9,147.3 L 188.51,158.48 L 195.13,173.97 L 201.74,190.19 L 208.35,208.71 L 214.97,227.34 L 221.58,245.04 L 228.19,263.21 L 234.81,288.5 L 241.42,320.22 L 248.03,348.38 L 254.65,369.86 L 261.26,380.96 L 267.87,383.39 L 274.49,381.88 L 281.78799,367.39601 L 287.72,342.84 L 294.33,305.99 L 300.94,260.94 L 307.56,213.17 L 314.17,173.65 L 320.78,143.09 L 327.4,119.04 L 334.01,102.72 L 340.62,93.49 L 347.24,87.86 L 353.85,84.4 L 360.47,82.92 L 367.08,82.26 L 373.69,81.65 L 380.31,81.31 L 386.92,81.24"
       style="fill:none;stroke:#ff0000;stroke-opacity:1;stroke-width:0.75000000000000000;stroke-linecap:round;stroke-linejoin:round;stroke-miterlimit:10;stroke-dasharray:none"
       id="path2536"
       sodipodi:nodetypes="cccccccccccccccccccccccccccccccccccccccccccccccccc" /><path
       d="M 62.76,81.35 L 71.07,83.41 L 79.38,90.89 L 87.68,92.43 L 95.99,87.53 L 104.29,89.24 L 112.6,93.05 L 120.91,94.67 L 129.21,99.16 L 137.52,104.73 L 145.82,106.04 L 154.13,113.72 L 162.43,125.77 L 170.74,136.05 L 179.05,148.84 L 187.35,164.56 L 195.66,182.12 L 203.96,201.66 L 212.27,225.62 L 220.58,250.94 L 228.88,290.07 L 237.19,329.33 L 245.49,347.44 L 253.8,351.81 L 262.11,363.74 L 270.41,370.67 L 278.72,351.69 L 287.02,322.56 L 295.33,286.71 L 303.63,231 L 311.94,176.15 L 320.25,140.38 L 328.55,112.43 L 336.86,93.97 L 345.16,86.05 L 353.47,83.25 L 361.78,81.93 L 370.08,81.35 L 378.39,81.24 L 386.69,81.25 L 395,81.38 L 403.3,81.55 L 411.61,81.4 L 419.92,81.4 L 428.22,81.56 L 436.53,81.53 L 444.83,81.81 L 453.14,81.72 L 461.45,81.33 L 469.75,81.23"
       style="fill:none;stroke:#fe0000;stroke-opacity:1;stroke-width:0.75000000000000000;stroke-linecap:round;stroke-linejoin:round;stroke-miterlimit:10;stroke-dasharray:none"
       id="path2538" /><path
       d="M 348.24,56.8 L 348.24,454.59"
       style="fill:none;stroke:#000000;stroke-opacity:1;stroke-width:0.75;stroke-linecap:round;stroke-linejoin:round;stroke-miterlimit:10;stroke-dasharray:none"
       id="path2540" /><path
       d="M 62.76,81.35 L 71.07,83.41 L 79.38,90.89 L 87.68,92.43 L 95.99,87.53 L 104.29,89.24 L 112.6,93.05 L 120.91,94.67 L 129.21,99.16 L 137.52,104.73 L 145.82,106.04 L 154.13,113.72 L 162.43,125.77 L 170.74,136.05 L 179.05,148.84 L 187.35,164.56 L 195.66,182.12 L 203.96,201.66 L 212.27,225.62 L 220.58,250.94 L 228.88,290.07 L 237.19,329.33 L 245.49,347.44 L 253.8,351.81 L 262.11,363.74 L 270.41,370.67 L 279.408,351.002 L 287.02,322.56 L 295.33,286.71 L 303.63,231 L 311.94,176.15 L 320.25,140.38 L 328.55,112.43 L 336.86,93.97 L 345.16,86.05 L 353.47,83.25 L 361.78,81.93 L 370.08,81.35 L 378.39,81.24 L 386.69,81.25 L 395,81.38 L 403.3,81.55 L 411.61,81.4 L 419.92,81.4 L 428.22,81.56 L 436.53,81.53 L 444.83,81.81 L 453.14,81.72 L 461.45,81.33 L 469.75,81.23"
       style="fill:none;stroke:#ff0000;stroke-opacity:1;stroke-width:0.75039999999999984;stroke-linecap:round;stroke-linejoin:round;stroke-miterlimit:10;stroke-dasharray:none;opacity:1"
       id="path2542"
       sodipodi:nodetypes="cccccccccccccccccccccccccccccccccccccccccccccccccc" /><path
       d="M 59.26,81.4 L 65.2,82.48 L 71.14,86.49 L 77.08,94.37 L 83.02,101.41 L 88.97,102.35 L 94.91,100.39 L 100.85,101.46 L 106.79,106.06 L 112.73,111.09 L 118.67,114.94 L 124.61,118.94 L 130.55,124.69 L 136.49,133.72 L 142.43,146.6 L 148.38,160.6 L 154.32,174.53 L 160.26,191.66 L 166.2,212.96 L 172.14,235.92 L 178.08,258.37 L 184.02,277.87 L 189.96,292.13 L 195.9,301.95 L 201.84,311.02 L 207.79,320.53 L 213.73,329.11 L 219.67,337.24 L 225.61,342.3 L 231.55,339.7 L 237.49,329.44 L 243.43,313.19 L 249.37,293.61 L 255.31,275.13 L 261.25,260.99 L 267.2,248.66 L 273.14,229.56 L 279.08,200.77 L 285.02,170.42 L 290.96,145.11 L 296.9,124.8 L 302.84,108.98 L 308.78,97.91 L 314.72,90.88 L 320.66,86.46 L 326.61,83.7 L 332.55,82.16 L 338.49,81.49 L 344.43,81.28 L 350.37,81.24"
       style="fill:none;stroke:#0000ff;stroke-opacity:1;stroke-width:0.75000000000000000;stroke-linecap:round;stroke-linejoin:round;stroke-miterlimit:10;stroke-dasharray:none"
       id="path2544" /><path
       d="M 315.63,56.8 L 315.63,454.59"
       style="fill:none;stroke:#000000;stroke-opacity:1;stroke-width:0.75;stroke-linecap:round;stroke-linejoin:round;stroke-miterlimit:10;stroke-dasharray:none"
       id="path2546" /><path
       d="M 59.26,81.4 L 65.2,82.48 L 71.14,86.49 L 77.08,94.37 L 83.02,101.41 L 88.97,102.35 L 94.91,100.39 L 100.85,101.46 L 106.79,106.06 L 112.73,111.09 L 118.67,114.94 L 124.61,118.94 L 130.55,124.69 L 136.49,133.72 L 142.43,146.6 L 148.38,160.6 L 154.32,174.53 L 160.26,191.66 L 166.2,212.96 L 172.14,235.92 L 178.08,258.37 L 184.02,277.87 L 189.96,292.13 L 195.9,301.95 L 201.84,311.02 L 207.79,320.53 L 213.73,329.11 L 219.67,337.24 L 225.61,342.3 L 231.55,339.7 L 237.49,329.44 L 243.43,313.19 L 249.37,293.61 L 255.31,275.13 L 261.25,260.99 L 267.2,248.66 L 273.14,229.56 L 279.08,200.77 L 285.02,170.42 L 290.96,145.11 L 296.9,124.8 L 302.84,108.98 L 308.78,97.91 L 314.72,90.88 L 320.66,86.46 L 326.61,83.7 L 332.55,82.16 L 338.49,81.49 L 344.43,81.28 L 350.37,81.24"
       style="fill:none;stroke:#0000ff;stroke-opacity:1;stroke-width:0.75000000000000000;stroke-linecap:round;stroke-linejoin:round;stroke-miterlimit:10;stroke-dasharray:none"
       id="path2548"
       sodipodi:nodetypes="cccccccccccccccccccccccccccccccccccccccccccccccccc" /><path
       d="M 70.21,81.5 L 75.27,81.89 L 80.33,82.71 L 85.39,84.22 L 90.45,86.76 L 95.51,90.57 L 100.57,95.74 L 105.63,102.1 L 110.68,109.26 L 115.74,116.75 L 120.8,124.11 L 125.86,130.89 L 130.92,136.56 L 135.98,140.63 L 141.04,142.91 L 146.1,144.02 L 151.16,145.62 L 156.22,150.09 L 161.28,159.67 L 166.34,175.42 L 171.4,196.69 L 176.46,221.39 L 181.52,247 L 186.58,271.69 L 191.64,295.07 L 196.69,317.96 L 201.75,341.46 L 206.81,365.75 L 211.87,389.47 L 216.93,410.01 L 221.99,424.39 L 227.05,430.14 L 232.11,425.82 L 237.17,411.04 L 242.23,386.51 L 247.29,353.97 L 252.35,315.99 L 257.41,275.67 L 262.47,236.06 L 267.53,199.61 L 272.59,167.92 L 277.64,141.82 L 282.7,121.42 L 287.76,106.37 L 292.82,95.97 L 297.88,89.27 L 302.94,85.29 L 308,83.12 L 313.06,82.04 L 318.12,81.55"
       style="fill:none;stroke:#0000ff;stroke-opacity:1;stroke-width:0.75000000000000000;stroke-linecap:round;stroke-linejoin:round;stroke-miterlimit:10;stroke-dasharray:none"
       id="path2550" /><path
       d="M 303.41,56.8 L 303.41,454.59"
       style="fill:none;stroke:#000000;stroke-opacity:1;stroke-width:0.75;stroke-linecap:round;stroke-linejoin:round;stroke-miterlimit:10;stroke-dasharray:none"
       id="path2552" /><path
       d="M 70.21,81.5 L 75.27,81.89 L 80.33,82.71 L 85.39,84.22 L 90.45,86.76 L 95.51,90.57 L 100.57,95.74 L 105.63,102.1 L 110.68,109.26 L 115.74,116.75 L 120.8,124.11 L 125.86,130.89 L 130.92,136.56 L 135.98,140.63 L 141.04,142.91 L 146.1,144.02 L 151.16,145.62 L 156.22,150.09 L 161.28,159.67 L 166.34,175.42 L 171.4,196.69 L 176.46,221.39 L 181.52,247 L 186.58,271.69 L 191.64,295.07 L 196.69,317.96 L 201.75,341.46 L 206.81,365.75 L 211.87,389.47 L 216.93,410.01 L 221.99,424.39 L 227.05,430.14 L 232.11,425.82 L 237.17,411.04 L 242.23,385.82201 L 247.29,353.97 L 252.35,315.99 L 257.41,275.67 L 262.47,236.06 L 267.53,199.61 L 272.59,167.92 L 277.64,141.82 L 282.7,121.42 L 287.76,106.37 L 292.82,95.97 L 297.88,89.27 L 302.94,85.29 L 308,83.12 L 313.06,82.04 L 318.12,81.55"
       style="fill:none;stroke:#0000fd;stroke-opacity:1;stroke-width:0.75000000000000000;stroke-linecap:round;stroke-linejoin:round;stroke-miterlimit:10;stroke-dasharray:none"
       id="path2554"
       sodipodi:nodetypes="cccccccccccccccccccccccccccccccccccccccccccccccccc" /><path
       d="M 60.01,81.36 L 67.61,82.77 L 75.21,88.75 L 82.81,97.17 L 90.4,100.19 L 98,101.31 L 105.6,103.76 L 113.2,109.6 L 120.8,119 L 128.4,127.02 L 136,134.75 L 143.6,146.9 L 151.2,162.19 L 158.8,176.68 L 166.4,194.82 L 174,218.28 L 181.59,246.14 L 189.19,277.69 L 196.79,302.3 L 204.39,320.5 L 211.99,339.64 L 219.59,351.87 L 227.19,354.78 L 234.79,348.07 L 242.39,331.5 L 249.99,312.6 L 257.59,289.96 L 265.18,259.06 L 272.78,222.96 L 280.38,186.24 L 287.98,152.71 L 295.58,127.07 L 303.18,107.47 L 310.78,94.76 L 318.38,88.48 L 325.98,84.84 L 333.58,82.71 L 341.18,81.68 L 348.77,81.3 L 356.37,81.23 L 363.97,81.23 L 371.57,81.23 L 379.17,81.23 L 386.77,81.24 L 394.37,81.3 L 401.97,81.51 L 409.57,81.66 L 417.17,81.48 L 424.77,81.29 L 432.36,81.23"
       style="fill:none;stroke:#0000ff;stroke-opacity:1;stroke-width:0.75000000000000000;stroke-linecap:round;stroke-linejoin:round;stroke-miterlimit:10;stroke-dasharray:none"
       id="path2556" /><path
       d="M 316.15,56.8 L 316.15,454.59"
       style="fill:none;stroke:#000000;stroke-opacity:1;stroke-width:0.75;stroke-linecap:round;stroke-linejoin:round;stroke-miterlimit:10;stroke-dasharray:none"
       id="path2558" /><path
       d="M 60.01,81.36 L 67.61,82.77 L 75.21,88.75 L 82.81,97.17 L 90.4,100.19 L 98,101.31 L 105.6,103.76 L 113.2,109.6 L 120.8,119 L 128.4,127.02 L 136,134.75 L 143.6,146.9 L 151.2,162.19 L 158.8,176.68 L 166.4,194.82 L 174,218.28 L 181.59,246.14 L 189.19,277.69 L 196.79,302.3 L 204.39,320.5 L 211.99,339.64 L 219.59,351.87 L 227.19,354.78 L 234.79,348.07 L 242.39,331.5 L 250.67799,310.53601 L 257.59,289.96 L 265.18,259.06 L 272.78,222.96 L 280.38,186.24 L 287.98,152.71 L 295.58,127.07 L 303.18,107.47 L 310.78,94.76 L 318.38,88.48 L 325.98,84.84 L 333.58,82.71 L 341.18,81.68 L 348.77,81.3 L 356.37,81.23 L 363.97,81.23 L 371.57,81.23 L 379.17,81.23 L 386.77,81.24 L 394.37,81.3 L 401.97,81.51 L 409.57,81.66 L 417.17,81.48 L 424.77,81.29 L 432.36,81.23"
       style="fill:none;stroke:#0000fd;stroke-opacity:1;stroke-width:0.75000000000000000;stroke-linecap:round;stroke-linejoin:round;stroke-miterlimit:10;stroke-dasharray:none"
       id="path2560"
       sodipodi:nodetypes="cccccccccccccccccccccccccccccccccccccccccccccccccc" /></g></g><g
   id="g2562" /><g
   id="g2564"><path
     d="M 57.52,56.8 L 474.99,56.8 L 474.99,454.59 L 57.52,454.59 L 57.52,56.8 z"
     style="fill:none;stroke:#000000;stroke-opacity:1;stroke-width:0.75;stroke-linecap:round;stroke-linejoin:round;stroke-miterlimit:10;stroke-dasharray:none"
     id="path2566" /></g><g
   id="g2568" /><g
   id="g2570" /><g
   id="g2572"><g
     id="g2574"
     clip-path="url(#clipPath2576)"><path
       d="M 57.52,454.59 L 474.99,454.59 L 474.99,468.99 L 57.52,468.99 L 57.52,454.59 z"
       style="fill:#ffe5cc;fill-opacity:1;fill-rule:nonzero;stroke:#ffe5cc;stroke-opacity:1;stroke-width:0.75;stroke-linecap:round;stroke-linejoin:round;stroke-miterlimit:10;stroke-dasharray:none"
       id="path2580" /></g></g><g
   id="g2586" /><g
   id="g2588"><path
     d="M 57.52,454.59 L 474.99,454.59 L 474.99,468.99 L 57.52,468.99 L 57.52,454.59 z"
     style="fill:none;stroke:#000000;stroke-opacity:1;stroke-width:0.75;stroke-linecap:round;stroke-linejoin:round;stroke-miterlimit:10;stroke-dasharray:none"
     id="path2590" /></g><g
   id="g2592" /><g
   id="g2594" /><g
   id="g2596" /><g
   id="g2598" /><text
   xml:space="preserve"
   style="font-size:12.80000019px;font-style:normal;font-weight:normal;fill:#000000;fill-opacity:1;stroke:none;stroke-width:1px;stroke-linecap:butt;stroke-linejoin:miter;stroke-opacity:1;font-family:Bitstream Vera Sans"
   x="210.52672"
   y="-457.51721"
   id="text3370"
   transform="scale(1,-1)"><tspan
     sodipodi:role="line"
     id="tspan3372"
     x="210.52672"
     y="-457.51721">Isotype Well A02</tspan></text>



<text
   xml:space="preserve"
   style="font-size:8px;font-style:normal;font-weight:normal;fill:#000000;fill-opacity:1;stroke:none;stroke-width:1px;stroke-linecap:butt;stroke-linejoin:miter;stroke-opacity:1;font-family:Bitstream Vera Sans"
   x="89.439453"
   y="-45.407711"
   id="text3374"
   transform="scale(1,-1)"><tspan
     sodipodi:role="line"
     id="tspan3376"
     x="89.439453"
     y="-45.407711">0</tspan></text>



<text
   xml:space="preserve"
   style="font-size:8px;font-style:normal;font-weight:normal;fill:#000000;fill-opacity:1;stroke:none;stroke-width:1px;stroke-linecap:butt;stroke-linejoin:miter;stroke-opacity:1;font-family:Bitstream Vera Sans"
   x="194.01482"
   y="-43.343742"
   id="text3378"
   transform="scale(1,-1)"><tspan
     sodipodi:role="line"
     id="tspan3380"
     x="194.01482"
     y="-43.343742">0.5</tspan></text>



<text
   xml:space="preserve"
   style="font-size:8px;font-style:normal;font-weight:normal;fill:#000000;fill-opacity:1;stroke:none;stroke-width:1px;stroke-linecap:butt;stroke-linejoin:miter;stroke-opacity:1;font-family:Bitstream Vera Sans"
   x="297.90216"
   y="-44.031742"
   id="text3382"
   transform="scale(1,-1)"><tspan
     sodipodi:role="line"
     id="tspan3384"
     x="297.90216"
     y="-44.031742">1</tspan></text>



<text
   xml:space="preserve"
   style="font-size:8px;font-style:normal;font-weight:normal;fill:#000000;fill-opacity:1;stroke:none;stroke-width:1px;stroke-linecap:butt;stroke-linejoin:miter;stroke-opacity:1;font-family:Bitstream Vera Sans"
   x="403.16553"
   y="-44.031731"
   id="text3386"
   transform="scale(1,-1)"><tspan
     sodipodi:role="line"
     id="tspan3388"
     x="403.16553"
     y="-44.031731">1.5</tspan></text>



<path
   style="fill:none;fill-rule:evenodd;stroke:#000000;stroke-width:1px;stroke-linecap:butt;stroke-linejoin:miter;stroke-opacity:1;marker-start:url(#Arrow1Mstart)"
   d="M 261.4384,141.52299 L 228.7586,133.78304"
   id="path3390"
   transform="matrix(0.8,0,0,-0.8,0,504)" /><text
   xml:space="preserve"
   style="font-size:12.80000019px;font-style:normal;font-weight:normal;fill:#000000;fill-opacity:1;stroke:none;stroke-width:1px;stroke-linecap:butt;stroke-linejoin:miter;stroke-opacity:1;font-family:Bitstream Vera Sans"
   x="112.83131"
   y="-393.5336"
   id="text4170"
   transform="scale(1,-1)"><tspan
     sodipodi:role="line"
     id="tspan4172"
     x="112.83131"
     y="-393.5336">Plate 9207</tspan></text>



<path
   style="fill:none;fill-rule:evenodd;stroke:#000000;stroke-width:1px;stroke-linecap:butt;stroke-linejoin:miter;stroke-opacity:1;marker-start:url(#Arrow1Mstart)"
   d="M 376.67769,83.903344 L 345.71788,82.183354"
   id="path4174"
   transform="matrix(0.8,0,0,-0.8,0,504)" /><text
   xml:space="preserve"
   style="font-size:12.80000019px;font-style:normal;font-weight:normal;fill:#000000;fill-opacity:1;stroke:none;stroke-width:1px;stroke-linecap:butt;stroke-linejoin:miter;stroke-opacity:1;font-family:Bitstream Vera Sans"
   x="195.39081"
   y="-434.12537"
   id="text4691"
   transform="scale(1,-1)"><tspan
     sodipodi:role="line"
     id="tspan4693"
     x="195.39081"
     y="-434.12537">Gate (9207)</tspan></text>



<text
   xml:space="preserve"
   style="font-size:12.80000019px;font-style:normal;font-weight:normal;fill:#000000;fill-opacity:1;stroke:none;stroke-width:1px;stroke-linecap:butt;stroke-linejoin:miter;stroke-opacity:1;font-family:Bitstream Vera Sans"
   x="356.38184"
   y="-434.81335"
   id="text2653"
   transform="scale(1,-1)"><tspan
     sodipodi:role="line"
     id="tspan2655"
     x="356.38184"
     y="-434.81335">Gate (9206,9208)</tspan></text>


<text
   xml:space="preserve"
   style="font-size:12.80000019px;font-style:normal;font-weight:normal;fill:#000000;fill-opacity:1;stroke:none;stroke-width:1px;stroke-linecap:butt;stroke-linejoin:miter;stroke-opacity:1;font-family:Bitstream Vera Sans"
   x="358.4458"
   y="-374.9577"
   id="text2657"
   transform="scale(1,-1)"><tspan
     sodipodi:role="line"
     id="tspan2659"
     x="358.4458"
     y="-374.9577">Gate (8774,8775)</tspan></text>


<path
   style="fill:none;fill-rule:evenodd;stroke:#000000;stroke-width:1px;stroke-linecap:butt;stroke-linejoin:miter;stroke-opacity:1;marker-start:url(#Arrow1Mstart)"
   d="M 440.31731,181.08274 L 476.43709,163.88285"
   id="path2661"
   transform="matrix(0.8,0,0,-0.8,0,504)" /><path
   style="fill:none;fill-rule:evenodd;stroke:#000000;stroke-width:1px;stroke-linecap:butt;stroke-linejoin:miter;stroke-opacity:1;marker-start:url(#Arrow1Mstart)"
   d="M 399.89756,108.84318 L 479.01707,90.783294"
   id="path3954"
   transform="matrix(0.8,0,0,-0.8,0,504)"
   sodipodi:nodetypes="cc" /></g></svg>